<?xml version="1.0" encoding="UTF-8"?>
<svg id="Calque_2" data-name="Calque 2" xmlns="http://www.w3.org/2000/svg" viewBox="0 0 176.08 193.4">
  <defs>
    <style>
      .cls-1 {
        fill: #2f353f;
      }

      .cls-2 {
        fill: #fff;
      }
    </style>
  </defs>
  <g id="Calque_1-2" data-name="Calque 1">
    <g>
      <g>
        <path class="cls-1" d="M97.78,62.69c-1.85-1.92-3.13-4.27-4.07-6.71-.26,3.11,1.64,6.62,3.93,8.7,1.2,1.09,2.98,2.1,4.48,1.56.92-.33,1.43-1.22,1.45-2.26-1.47,2.01-4.16.41-5.8-1.3Z"/>
        <path class="cls-1" d="M20.18,126.36l1.86-19.27,23.49-.26,3.86-.15c-5.62-1.63-10.72-5.53-14-11.14-5.11-8.73-4.38-19.54,1.58-26.5,7.25-4.69,13.33-11.1,18.1-17.25,1.71,8.55,4.91,17.28,9.83,25.69,4.27,7.3,9.37,13.7,14.97,19.05-1.17-.47-2.33-1.02-3.46-1.65-3.82-2.14-7.09-4.99-10.03-8.22,2.68,3.81,5.79,7.21,9.59,9.93,1.09.78,2.22,1.47,3.37,2.09-2.23-.55-4.39-1.32-6.5-2.39-3.9-1.98-7.23-4.74-10.2-7.92,2.7,3.74,5.87,7,9.72,9.57,1.01.67,2.05,1.27,3.12,1.81-2.16-.45-4.27-1.12-6.33-2.08-3.92-1.82-7.27-4.49-10.24-7.59,2.73,3.67,5.95,6.85,9.86,9.26.94.58,1.9,1.09,2.88,1.55-1.92-.32-3.8-.84-5.66-1.59-4.15-1.69-7.7-4.33-10.82-7.51,2.8,3.67,6.12,6.81,10.18,9.06.82.45,1.66.86,2.5,1.23-1.92-.25-3.81-.7-5.67-1.41-4.12-1.57-7.63-4.08-10.74-7.17,2.85,3.65,6.27,6.76,10.44,8.85.7.35,1.41.66,2.12.95-1.85-.17-3.69-.56-5.51-1.19-4.14-1.44-7.66-3.86-10.78-6.91,2.94,3.68,6.49,6.78,10.83,8.71.53.23,1.06.45,1.59.65-1.72-.11-3.45-.41-5.16-.93-4.23-1.29-7.81-3.68-10.98-6.72,2.92,3.57,6.41,6.53,10.7,8.35.53.23,1.06.43,1.6.62-1.68-.06-3.37-.31-5.06-.79-4.23-1.2-7.79-3.49-10.97-6.48,2.92,3.51,6.35,6.23,10.56,8.02l20.19-.79,4.8-.07c4.68-.9,9.35-1.31,13.65-1.41.6.41,1.21.79,1.82,1.18l5.26-.08,6.1-.15c-9.4-3.82-17.61-10.53-24.13-18.22-5.62-6.62-10.16-14.07-13.6-22.03-4.11-9.52-6.5-20.14-5.87-30.54.59-9.66,4.07-19.72,12.35-25.39.63-.43,1.3-.8,1.96-1.19-3.39,2.37-6.21,5.26-8.22,8.9-2.36,4.26-3.61,9.09-4.1,13.91-1.03,10.12,1.05,20.39,4.63,29.83,2.96,7.8,7.1,15.18,12.13,21.82,6.13,8.1,13.8,15.4,22.85,20.13,1.97,1.03,4.02,1.93,6.13,2.68l15.2-.36,6.2.53c.59-.25,1.16-.54,1.74-.82-.51.3-1.02.57-1.53.84l8.03.69c6.62-5.84,10.33-15.23,10.54-27.01.24-13.38-4.1-28.37-12.2-42.21-8.1-13.84-19.05-24.95-30.84-31.3-12.29-6.62-24.05-7.33-33.14-2.01-10.84,6.35-16.97,18.08-17.21,32.03-.06,3.46.13,7,.58,10.6-2.86,4-6.33,8.27-10.36,12.17-1.6.51-3.14,1.19-4.59,2.03-.46.27-.93.57-1.47.95l-25.69,16.06C-.03,84.43-3.63,100.79,4.01,113.84c3.82,6.52,9.73,11,16.19,12.97l-.03-.45ZM68.19,23.34c1.45-3.14,3.07-6.32,5.12-9.11-.8,3.38-2.19,6.66-3.64,9.8-1.45,3.14-3.07,6.32-5.12,9.11.81-3.38,2.19-6.66,3.64-9.8ZM79.41,79.19c-.09-.12-.17-.23-.26-.35l13.44-9.91-15.26,6.89,7.54-6.01-9.41,3.44c-.08-.14-.17-.28-.25-.41l5.25-4.2-6.65,1.78c-.09-.17-.18-.33-.28-.5l4.19-3.41-5.44,1.07c-.1-.19-.19-.37-.28-.56l3.77-3.03-4.88.76c-.09-.2-.19-.4-.28-.6l3.57-2.86-4.53.71c-.08-.19-.17-.39-.25-.58l19.7-7.68c-.63,3.01.1,6.87,2.25,10.55,1.16,1.97,2.56,3.62,4.07,4.86l-16.04,10.05ZM93.85,51.95c2.08-1.22,6.34.76,9.13,5.53,2.79,4.77,2.43,9.46.35,10.67s-6.34-.76-9.13-5.53c-2.8-4.77-2.43-9.45-.35-10.67ZM110.67,11.92c5.79,4.27,10.79,9.35,15.28,14.96,4.6,5.76,8.49,12.17,11.57,18.86,3.02,6.56,5.4,13.44,6.62,20.57.65,3.84,1.07,7.73.95,11.63-.1,3.38-.57,6.62-1.34,9.91,1.24-6.32,1.26-12.59.28-18.96-1.07-6.97-3.23-13.81-6.04-20.27-5.77-13.25-14.47-25.53-25.64-34.75-5.53-4.57-11.71-8.02-18.58-10.08,6.16,1.6,11.76,4.35,16.9,8.13ZM93.26,9.05c12.31,3.71,25.74,15.11,35.29,31.42,14.8,25.28,14.77,52.92-.07,61.6-8.99,5.26-21.38,2.38-33.04-6.32l10.2.56-14.17-4.45,23.59-.41-26.86-3.75,20.82-3.24-19.36-.78,15.98-13.13c.09-.07.16-.15.23-.23,3.19-2.77,3.24-8.86-.06-14.51-.76-1.29-1.62-2.44-2.55-3.43l16.91-14.39-20.85,11.36c-.82-.42-1.65-.72-2.47-.89l20.41-18.28c-1.08-1.44-2.2-2.84-3.35-4.21l-19.78,18.93,17.24-21.81c-3.24-3.5-6.79-6.74-10.71-9.61-.07-.05-.14-.1-.21-.15l-18.13,21.31,16.13-22.66c-1.67-1.06-3.41-2.01-5.17-2.94ZM83.29,10.8c-1.74,4.08-3.86,8.01-5.98,11.91-2.8,5.12-5.84,10.15-9.09,15-1.13,1.68-2.27,3.35-3.5,4.96,1.74-4.08,3.86-8.01,5.99-11.91,2.8-5.12,5.83-10.15,9.09-15.01,1.13-1.68,2.27-3.35,3.5-4.96ZM20.08,81.42c-2.15,4.6-2.67,9.48-2.13,14.48-1.12-5.11-1.09-10.25.67-15.23-.51.79-.98,1.61-1.39,2.48-2.15,4.6-2.67,9.48-2.13,14.48-1.12-5.11-1.09-10.25.67-15.23-.51.79-.98,1.61-1.39,2.48-2.15,4.6-2.67,9.48-2.13,14.48-1.12-5.11-1.09-10.25.67-15.23-.51.79-.98,1.61-1.39,2.48-2.15,4.6-2.67,9.48-2.13,14.48-1.12-5.11-1.09-10.25.67-15.23-.51.79-.98,1.61-1.39,2.48-2.15,4.6-2.67,9.48-2.13,14.48-1.12-5.11-1.09-10.26.67-15.23.41-1.16.92-2.26,1.48-3.32,1.41-1.6,3.08-3,5-4.12l20.26-12.66c-1.14,1.43-4.68,7.23-5.37,8.71-2.15,4.6-2.67,9.48-2.13,14.48-1.12-5.11-1.09-10.25.67-15.23-.51.79-.98,1.61-1.39,2.48-2.15,4.6-2.67,9.48-2.13,14.48-1.12-5.11-1.09-10.25.67-15.23-.51.79-.98,1.61-1.39,2.48-2.15,4.6-2.67,9.48-2.13,14.48-1.12-5.11-1.09-10.25.67-15.23-.51.79-.98,1.61-1.39,2.48Z"/>
      </g>
      <g>
        <path class="cls-1" d="M96.53,193.4l-25.62-1.52-25.41-.56-26.89,1.23-1.32-23.07v-.08s1.18-21.49,1.18-21.49l-1.29-21.61v-.12s2.15-22.07,2.15-22.07l26.15-.29,25.47-1,25.55-.39,25.59-.61h.08s25.42,2.18,25.42,2.18l27.63-1.48-1.19,23.77,2.07,21.57v.1s-.93,21.57-.93,21.57l-.56,23.04-27.06.6h-.06s-25.41-1.61-25.41-1.61l-25.51,1.84ZM45.46,188.32h.05s25.52.57,25.52.57l25.47,1.51,25.52-1.84h.1s25.45,1.61,25.45,1.61l24.07-.53.49-20.2.93-21.5-2.07-21.58v-.11s1.03-20.56,1.03-20.56l-24.51,1.32h-.1s-25.44-2.18-25.44-2.18l-25.44.61-25.53.39-25.48,1-23.49.26-1.86,19.27,1.29,21.54-1.18,21.57,1.14,19.94,24.04-1.1Z"/>
        <g>
          <path class="cls-1" d="M37.61,119.04v20.89l4.15,3.2h-13.43l3.96-3.04v-21.2l-3.96-3.08h13.43l-4.15,3.24Z"/>
          <path class="cls-1" d="M58.2,140.46l.04-8.18c0-2.02-.11-2.89-.68-3.77-.53-.84-1.48-1.26-2.85-1.26-2.78,0-3.58,2.13-3.77,3.2v10.01l2.97,2.66h-10.28l2.74-2.66v-10.58l-2.74-1.67,2.74-1.83v-.04l3.42-2.28.88,3.73c1.22-2.06,3.01-3.27,5.97-3.27,3.62,0,6.17,2.28,6.17,6.62l-.04,9.32,2.97,2.66h-10.28l2.74-2.66Z"/>
          <path class="cls-1" d="M74.49,127.33v13.13l2.97,2.66h-10.28l2.74-2.66v-13.13h-2.93v-2.44h2.93c-.84-1.1-1.71-2.85-1.71-4.79,0-3.65,2.44-5.67,5.48-5.67,1.75,0,4.3.88,5.78,3.92l-3.35,4c-.5-1.98-1.94-3.92-3.16-3.92-1.37,0-2.06.76-2.06,2.06s1.56,3.65,3.77,4.41h4.34v2.44h-4.53Z"/>
          <path class="cls-1" d="M90.4,143.51c-5.75-.08-9.59-3.58-9.59-9.44s3.92-9.55,9.59-9.55c5.97,0,9.55,4.11,9.59,9.48,0,5.9-3.84,9.4-9.59,9.51ZM86.1,134.03c0,4.07.91,7.65,4.3,7.65s4.3-3.58,4.3-7.65-.95-7.69-4.3-7.72c-3.39-.04-4.3,3.65-4.3,7.72Z"/>
          <path class="cls-1" d="M30.73,172.35v-19.64l-2.74-1.33,7.31-4.87-.04,17.62h1.22l5.52-4.45-2.17-2.85h8.83l-1.98,1.52-6.77,5.37,7.04,8.6,3.04,2.7h-9.51l1.52-1.48-5.67-7-.08.04-.23-.34h-.76v6.17l2.97,2.66h-10.27l2.78-2.7Z"/>
          <path class="cls-1" d="M52.53,172.39v-10.85l-2.74-1.41,2.74-1.67,2.25-1.37,2.32-1.41v16.71l2.93,2.66h-10.24l2.74-2.66ZM55.05,147.8c1.56,0,2.89,1.33,2.89,2.89s-1.33,2.89-2.89,2.89-2.89-1.29-2.89-2.89,1.29-2.89,2.89-2.89Z"/>
          <path class="cls-1" d="M71.6,175.43c-5.75-.08-9.59-3.58-9.59-9.44s3.92-9.55,9.59-9.55c5.97,0,9.55,4.11,9.59,9.48,0,5.9-3.84,9.4-9.59,9.51ZM67.3,165.96c0,4.07.91,7.65,4.3,7.65s4.3-3.58,4.3-7.65-.95-7.69-4.3-7.72c-3.39-.04-4.3,3.65-4.3,7.72Z"/>
          <path class="cls-1" d="M94.74,157.32l2.97-1.64.04,7.8c-.84-1.52-1.79-2.85-3.2-3.96-.88-.76-2.25-1.22-3.27-1.22-1.83,0-3.16.8-3.16,2.28,0,1.18,1.48,1.9,3.77,2.47,3.96.99,6.51,2.17,6.51,6.51,0,2.55-2.02,5.86-6.36,5.86-1.98,0-3.39-.5-4.45-1.1l-2.85,1.41-.04-8.49c1.22,1.87,2.25,3.81,3.96,5.14,1.07.8,2.09.95,3.46.95,1.26,0,2.85-.76,2.85-2.32,0-2.17-2.62-2.63-4.41-3.01-3.58-.76-5.78-2.28-5.78-6.01s2.89-5.75,6.24-5.75c1.29,0,2.74.5,3.73,1.07Z"/>
          <path class="cls-1" d="M101.86,166.34c0-5.1,4.3-9.82,10.54-9.82,1.45,0,3.2.3,4.64,1.29l3.31-2.09v26.14l2.97,2.7h-5.18v-.04h-.3v.04h-4.79l2.74-2.7v-8.87c-1.33,1.79-3.65,2.55-5.63,2.55-4.07,0-8.3-2.89-8.3-9.21ZM115.79,171.25l.04-7.54c0-3.62-1.52-5.29-4.22-5.29-3.08,0-5.02,2.7-5.02,6.17,0,5.14,2.74,7.57,6.13,7.57.76,0,2.02-.08,3.08-.91Z"/>
          <path class="cls-1" d="M142.35,170.94l2.74,1.9-6.17,3.08-.88-3.65c-1.18,2.02-2.85,3.2-5.78,3.2-3.62,0-6.09-2.28-6.09-6.62v-7.34l-2.7-1.37,4.99-3.04v.04l2.32-1.45-.04,11.8c.04,3.2.72,5.18,3.54,5.18,2.55,0,3.27-1.79,3.5-2.85v-8.26l-2.74-1.41,4.99-3.04v.04l2.32-1.45v15.26Z"/>
          <path class="cls-1" d="M147.38,166.3c0-5.33,3.62-9.86,9.17-9.86,3.16,0,7.54,1.56,7.92,6.85h.04v1.9h-12.83c.15,3.84,2.55,6.39,6.32,6.39,2.66,0,4.87-1.14,6.36-3.54,0,4.3-4.03,7.38-8.03,7.38-5.9,0-8.94-4.45-8.94-9.13ZM151.68,163.29h7.95c0-3.01-1.26-5.06-3.65-5.06-2.06,0-4.26,1.83-4.3,5.06Z"/>
        </g>
      </g>
      <path class="cls-1" d="M91.79,99.32l-17.4,6.4c5.92-1.51,9.62-1.25,15.07-1.38,2.1,1.44,4.24,2.75,6.4,3.9,13.28,7.11,24.4,7.84,36.62.69,9.09-5.32,14.22-15.93,14.47-29.88l-2.27.83c.3,16.34-14.77,24.66-14.77,24.66-3.8,2.23-7.81,3.51-12.24,3.68-4.96.19-9.87-.89-14.47-2.69-4.03-1.58-7.86-3.7-11.42-6.2h0Z"/>
      <path class="cls-2" d="M135.14,94.75c-1.76,2.91-3.82,5.66-6.66,7.33-7.44,4.36-17.42,3.49-27.19-2l33.85-5.33Z"/>
      <path class="cls-1" d="M92.55,97.37c2.56,1.93,5.26,3.66,8.09,5.15,8.38,4.38,18.25,6.6,27.3,2.94.67-.27,1.32-.61,1.97-.92l-.47-3.07c-.32.21-.64.42-.97.61-8.99,5.26-21.38,2.38-33.04-6.32l-2.88,1.61Z"/>
      <path class="cls-2" d="M78.51,87.08c-5.62-6.62-10.16-14.07-13.6-22.03-4.11-9.52-6.5-20.14-5.87-30.54.59-9.66,4.07-19.72,12.35-25.39.63-.43,1.3-.8,1.96-1.19-3.39,2.37-6.21,5.26-8.22,8.9-2.36,4.26-3.61,9.09-4.1,13.91-1.03,10.12,1.05,20.39,4.63,29.83,2.96,7.8,7.1,15.18,12.13,21.82,6.13,8.1,13.8,15.4,22.85,20.13,8.38,4.38,18.25,6.6,27.3,2.94.67-.27,1.32-.61,1.97-.92-3.8,2.23-7.81,3.51-12.24,3.68-4.96.19-9.87-.89-14.47-2.69-9.64-3.77-18.05-10.61-24.7-18.45Z"/>
    </g>
  </g>
</svg>