<?xml version="1.0" encoding="UTF-8"?>
<svg id="Calque_2" data-name="Calque 2" xmlns="http://www.w3.org/2000/svg" viewBox="0 0 240.19 148.3">
  <g id="Calque_1-2" data-name="Calque 1">
    <g>
      <path d="M190.79,14.4l2.03-.73.97.96c.47,6.83,1.61,13.11,3.65,19.63,2.33,7.44,6.38,13.39,9.63,20.37,3.75,8.05,2.99,16.8,6.95,25.45,3.22,7.04,12.55,22.15,18.17,27.19.75.67,2.2.9,2.02,2.38l-8.14,2.18c-.39.39,1.1,1.78,1.46,2.02,1.4.98,4.19,1.74,5.89,2.03.87.15,4.64.13,4.88.88.34,1.06-1.66,1.06-2.29,1.3-2.43.93-3.88,1.62-6.7,1.22l-3.96.47c1.19.6,7.55.53,8.05,1.19.19.26.14.49-.01.73l-3.48,2.4c1.95,1.34,4.38,2.39,6.32,3.65,1.58,1.02,3.79,3.75,3.96,5.66.05.53-.63,1.68-1.06,1.95-.93.58-6.39,1.08-7.63.96-6.06-.59-11-3.46-16.41-5.67-8.04-3.29-16.47-5.53-24.73-8.15-12.78-4.06-25.44-8.91-39.06-9.42-.54-.02-3.48-.18-3.47.36,1.72,1.64,2.66,3.43,1.92,5.77-1.4,4.45-5.5,9.57-10.44,9.96-7.28.57-16.1-.94-21.61-6-1.93-1.77-2.8-4.16-4.33-6.26-.54-.04-1.86,1.34-2.42,1.66-5.03,2.84-10.12,5.19-15.27,7.77-12.97,6.5-27.78,12.43-41.63,17.65-4.17,1.57-14.27,5.56-18.3,4.02-1.66-.64-6.82-4.78-7.92-6.24-3.65-4.82-3.91-11.68-4.13-17.47-.18-.6-2.82-2.75-3.43-3.53-1.54-1.96-2.31-8.01-2.76-10.68-.85-5.09-2.24-7.54-4.02-12.3-1.57-4.19-2.52-7.85-3.49-12.11-.38-1.68-.77-3.37-1.2-5.04-2.24-8.63-5.25-16.45-6.82-25.34-.58-3.25-1.71-8.17-1.96-11.24-.19-2.33.87-2.99,2.6-4.3l4.81-.35c-.25-2.53-1.86-3.97,0-6.48.97.06,1.31,1.39,1.52,2.19,1.18,4.45,1.92,8.96,3.45,13.35s4.38,7.77,6.07,12.41c2.84,7.77,4.92,15.86,7.13,23.83l1.98,5.57c-1.82-6.71-2.72-13.69-4.73-20.34-2.71-8.98-6.14-16.78-9.7-25.34-1.47-3.53-1.97-5.95-2.91-9.57-.22-.86-2.03-4.28-.29-4.27.99,0,2.11,3.52,2.35,4.38.66,2.38.82,4.48,1.74,6.9,1.89,4.98,4.94,10.03,7.12,14.96,4.05,9.16,10.03,21.78,11.65,31.55,1.16,6.98,1.9,14.49,2.71,21.53.54,4.72,2.02,8.5,3.28,13.02.12.26.91.88.78.19-.38-2.14-1.35-4.54-1.79-6.85-1.84-9.63-2.85-19.46-4.75-29.09-2.59-13.14-8.56-25.25-14.05-37.31-1.9-4.17-2.44-8.85-4.23-12.81-.74-1.64-2.33-4.15-3.29-5.83-.51-.9-1.55-1.52-1.37-2.55.61-.91,5.13.44,4.78,2.14h-1.44c-.39.38,3.02,6.16,3.4,7.04,1.98,4.45,2.6,9.14,4.95,13.77,6.46,12.74,11.53,27.13,14.13,41.31,1.86,10.14,3.13,19.7,5.48,29.8.44,1.9.43,3.95,1.19,5.79.22.24,1.26-.03,1.61-.09,11.3-2,21.37-6.77,31.71-11.25,1.99-.86,4.17-1.47,6.09-2.31.5-.22,1.25-.49,1.52-1-1.1.09-1.97.83-3,1.2-3.31,1.21-6.62,2.41-9.89,3.79-4.41,1.87-10.67,5.83-15.57,5.33-.75-.08-1.16-.41-1.68-.48-1.7-.21-8.61,1.2-9.25.31-.51-.71-.98-5.88-1.3-7.29-1.81-7.97-2.98-16.33-5.4-24.12-1.64-5.28-2.35-8.66-3.48-14.04-2.1-9.99-7.4-20.65-10.62-30.66-1.65-5.12-4.93-9.25-6.79-14.57-.42-1.21-.52-2.64-.9-3.66-.53-1.39-4.67-4.8-4.03-6.06.52-1.02,3.35-.3,4.28.05,2,.75,3.66,1.46,5.87,1.81,1.94.3,3.85.37,5.82.3-2.01-3.38-3.32-7.86-5.77-10.91-.73-.92-4.23-3.53-2.29-4.7s1.85.86,2.35,1.4c.64.68,2.82.83,3.78,1.14,4.44,1.43,9.36,3.55,13.68,4.8,5.7,1.64,9.17.05,14.58-1.02,6.43-1.27,13.7-2.38,19.99-4.01,3.52-.91,7.38-3.15,10.98-4.14s12.8-2.48,15.87-.65c2.15,1.28,3.94,5.5,5.54,7.42,1.3,1.55,3.5,2.69,4.92,4.44,2.74,3.4,2.45,8.1,2.76,12.24,4.52-4.34,6.93-9.41,12.8-12.28,3.88-1.9,8.97-3.85,13.05-5.43,5.95-2.3,13.35-5.3,19.38-7.02,3.62-1.03,7.38-1.5,11.03-2.41,5.06-1.27,10.43-3.38,15.49-4.43,1.07-.22,2.9-.73,3.72.14,1.64,1.75,1.23,11.29,1.33,13.91ZM187.89,2.43c-.64-.11-1.27-.03-1.91.08-6.14,1.04-13.76,3.63-20,5.2-6.84,1.73-12.78,3.57-19.41,6.03-7.04,2.62-13.96,5.63-20.99,8.29-1.36.75-2.03,2.24-2.95,3.29-.78.89-2.62,1.94-2.52,3.24.85-.49,4.37-4.21,5.04-4.08.36.07.39.76.39,1.08,0,1.86-1.41,4.39-.74,6.36.32.24,5.68-3.83,6.9-4.04.39-.07.6-.08.92.18.94.74,1.34,8.56,1.55,10.21.09.72.64,1.42.62,2.38-.01.47-.29,1.85-.88,1s-.18-2-.83-2.76c-.49.01-1.42,2.6-1.3,3.2.22.69,1.66.29,2.26.39,1.36.24-.22,1.56-.35,2.29-.12.63.05,1.38-.01,2.03.89-.06,1.91-.03,2.34.9.44,2.53,1.37,4.94,1.92,7.44.24,1.07.19,2.42.46,3.62.31,1.39,3.13,9.25,2.48,9.88-.97.21-.9-.28-1.44-.72l-.48,2.64c.75-.5,1.53-1.72,2.52-.97l2.76,9.24c-.1.94-5.72,5.76-6.54,7.39-.17.34-.13,1.03-.21,1.11-.09.09-.66.02-.93.14-.6.26-2.36,1.42-2.16,2.16.25.33.38.39.79.33.62-.09,3.95-3.56,4.62-4.28,1.65-1.79,2.48-4.06,5.16-4.56.25.25-1.08,1.87-1.32,2.16-2.38,2.94-5.44,5.31-7.8,8.28-.09.48.15.44.48.24,1.41-.87,3.56-4.1,4.91-5.41.56-.55,1.48-1.32,2.29-1.19.54.49-4.21,4.99-4.68,5.52-.79.87-1.61,1.91-2.28,2.88.78.67,6.72-7.06,7.68-6.24l-7.2,9.12c.45.4,2.65-2.76,3-3.12.7-.75,1.52-1.59,2.28-2.28.49-.45,3.66-3.19,4.08-2.76-.48,1.97-2.68,3.27-3.96,4.8-.16.19-.63.48-.24.72,1.21-.67,1.95-1.92,3.02-2.74,3.55-2.73,9.74-6.6,13.9-8.18,11.63-4.38,25.49,2.12,37.33,2.29l5.87-.49c-2.63-3.87-1.6-9.01-2.03-13.45-4.1-7.95-9.46-15.77-10.66-24.86-.66-4.96.33-10.3-.02-15.34-1.15-8.35-.68-16.8-1.21-25.19-.03-.48-.37-3.34-.5-3.45ZM85.91,102.72c.67-.33,1.58-.6,2.27-.96.79.66.26,1.27-.35,1.81-1.43,1.27-10.56,5.64-12.39,5.86-.37.04-1.02.11-1.31-.09-1.9-1.32,4.52-12.68,3.86-13.33-2.22-.44-4.55-.42-6.77-.79s-4.34-1.48-6.57-1.83c-2.62-.41-5.66.3-7.78-1.58l-1.67-2.28c-.18,4.09,4.82,5.78,7.66,7.58,3.66,2.32,6.21,4.87,8.46,8.58,2.1,3.48,1.32,5.53,6.5,3.94,5.85-1.79,14.49-6.1,20.27-8.77.63-.29,1.42-1.09,2.15-1.45,6.18-2.99,14.18-4.96,21.02-3.83,1.09.18,1.94,1.12,3.06,1.14-1.22-3.47-2.7-6.87-3.58-10.46-1.49-6.08-1.59-12.68-3.01-18.83-1.35-5.85-4.06-12.07-5.35-17.69-1.71-7.43.94-17.8-.89-25.75-.96-4.18-3.32-4.11-5.78-6.46-3.09-2.95-4.04-8.26-9.11-8.65-1.93-.15-7.85.5-9.48,1.31-.98.49-1.82,1.28-2.83,1.73-2.31,1.04-5.04,1.04-7.53,1.59-10.75,2.34-21.34,5.27-32.03,7.83-3.62-.76-7.39-.42-10.94-1.49s-6.26-3.65-9.55-5.21c-.27.29,1.32,2.65,1.56,3.11,1.77,3.37,2.89,6.86,4.46,10.18.93,1.95,2.3,3.81,3.21,5.91,2.25,5.21,3.59,10.87,5.81,16.03,1.72,3.99,3.8,7.06,5.62,10.94,2.02,4.29,3.98,9.28,5.67,13.77,1.43,3.83,3.08,8.06,3.66,12.06l1.67-.96,2.32,5.77c2.39.01,4.98.12,7.34.53,1.63.28,3.33.99,4.93,1.31s7.45.69,8.29,1.25c1.16.76.18,4.86-.32,6.02.63-.02.84-.63,1.49-.81s1.24.29,1.87-.27-.85-.59-.72-1.2c2.59-2.5,1.84,1.99,1.7,3.56.22.61,1.4.16,1.41.99l-1.61,1.28-4.87,2.69c3.01-.5,5.48-2.75,8.16-4.08-.06.03-.51.08-.48-.12.82-1.05-.24-2.74-.19-3.32.04-.43.67-1.79,1.27-1.61.52.16.65,2.2.58,2.75-.07.49-.83,2.1-1.18,2.3ZM191.96,16.83c-.55-.12-1.38-.14-1.43.57.08.66.53,1.06.67,1.74.38,1.74.7,5.14.52,6.87-.05.48-.28.89-.45,1.32,2.06.7,1.83,2.96,2.21,4.64.11.47.59.95.62,1.3.03.37-.52.74-.63,1.21-.54,2.28.59,1.87,1.27,3.19.75,1.45.78,3.3,1.25,4.75s1.91,6.07,2.52,7.08c.25.41,2.49,1.29.92,1.73-1.43.4-3.98-.72-5.52-.73,1.09,1.23,6.59,1.15,7.2,2.64.31.77-2.06.53-2.16.6l.31.54,1.6.81-.22.7-.96.59c.96.04,1.8.61,2.39,1.32-.32.26-.62.77-.96.96-.36.2-.98-.07-.95.36.55.04,1.11.18,1.6.44,1.97,1.03,1.26,1.43,1.89,3.15.72,1.97,1.15,2.52,1.56,4.68.1.55.83.91.23,1.46-.37.35-1.13.14-1.2.59,2.64.24,3.02,2.7,0,1.92l2.16,1.56c.14.66-1.03.66-1.44.6.38.8,1.56,1.13,1.44,2.16l-3.36-.36c1.43.67,3.01,1.13,4.08,2.41.07.33-.26.57-.57.58-.85.05-2.47-.53-3.37-.68-1.32,1.29,1.25,1.26,2.19,1.61.62.24,3.86,1.77,2.72,2.57-.47.33-1.5-.55-1.68.11.71.1,3.36,2.1,2.39,2.76-.25.17-.78-.05-.71.36l2.26.95.36-.56c-2-8.35-2-17.42-4.38-25.64-1.87-6.48-5.04-11.57-7.98-17.46-2.1-4.22-4.8-12.58-5.57-17.23-.2-1.22-.28-7.85-.81-8.19ZM42.71,63.84h-3.96c-.36,0-.75-.36-.57-.8.32-.8,1.66-.67,1.65-1.6-.9.02-1.95.08-2.63-.6.56-1.3,2.27-.97,3.45-1.11.29-.04,1.31-.1,1.35-.45h-3.72c-.2,0-1.55-1.2-1.55-1.32l1.67-1.2c.1-.64-.8-.27-1.27-.41-.19-.06-.62-.41-.65-.56-.16-.76,1.42-.52,1.2-1.31-2.15.09-2.46-.94-.72-2.04-.73-.3-1.69-.22-1.08-1.32.23-.42.83-.3.84-.71l-1.8-.48-.1-2.02c-.05-.19-1.92-.33-.5-1.71-.44-.54-1.36-.43-1.4-1.25-.03-.58.45-.8.4-1.1-.04-.28-.59-.59-.45-1.21.04-.2.85-.29.97-1.26.16-1.29-1.95-6.97-2.59-8.42-.39-.88-1.85-3.82-2.51-4.21-1.55-.92-4.74-.47-6.51-.69-1.49-.19-3.91-.87-5.5-1.22-.3-.07-.45-.48-.41.17,1.66,3.44,4.89,7.02,6.36,10.44,1.62,3.78,2.27,9.46,3.66,13.62,2.66,8,7.1,16.05,9.25,24.11,1.26,4.73,1.12,9.78,3.05,14.35l1.19-2.16c.91,5.31,1.78,10.67,2.61,16,.52,3.39.59,7.2,1.53,10.47.32,1.1.96,1.95,1.27,3.29.39,1.73.49,3.52.6,5.28,2.1.13,4.15-.21,6.2-.65,9.48-2.01,19.57-6.91,28.54-10.58,2.47-1.01,5.46-1.82,7.91-2.89,1.27-.56,2.56-1.6,3.67-2.44-.53.01-1.04.31-1.52.51-4.17,1.77-8.39,4-12.64,5.6-.79.3-3.65.95-4.38.81-2.19-.43-3.69-5.51-4.7-7.32-2.46-4.41-6.55-6.57-10.77-9.15-.85-.52-1.55-1.1-2.59-1.02-.65.05-3.62,1.08-4.38,1.39-.29.12-.27.5-.46.54-.53.12-1.83.04-2.24-.35-.47-.45-.27-.73.15-1.05,1.31-1,7.91-1.32,4.53-3.29l-3.23,1.01.23,1.41c-.48.5-.48-.22-.74-.45-.32-.29-1.96-1.66-1.67-2.06.85-.59,4.83-1.11,5.16-1.68.18-.3.12-.64.12-.96-1.18-.34-6.61,1.85-6.96.35-.31-1.35,5.09-1.65,5.96-1.96.36-.13.77-.19.77-.68,0-.26-.27-.63-.5-.73-1.15-.54-5.76,2.54-6.7.25.03-.38,2.29-.95,2.76-1.06,1.12-.25,3.48.02,3.48-1.34,0-1.75-3.11.14-4,.34-.54.12-3.44.3-3.7.01.01-.26-.06-.57.04-.8.36-.93,5.08-1.3,6.21-1.71.56-.21.82-.42.72-1.08-1.38-.89-1.94.48-2.06.49-.2.02-.61-.28-.95-.26-1.16.05-3.82.81-4.54-.24-.26-.37-.25-1.01-.51-1.41l.27-.49c.92.51,6.22.75,6.56.2l.03-1.65c-.24-.24-5.84,1.49-6.61.99-.2-.13-.43-.45-.54-.68l-3.1-10.23c.2-1.79,1.67-1.14,2.83-1.46.72-.2,1.41-.8,2.24-.84l.14-.74c-.41-.44-7.16,2.88-5.6-.26l3.44-.94ZM131.51,30c-.42-.41-2.3.67-2.63,1.08-.79.97.61,4.09.51,5.36,1.03.42,2.23-.02,3.08.75l-.48-4.08c-.5-.63-.94,2.03-1.68,1.68-.25-1.74,1.25-3.09,1.2-4.8ZM125.99,33.36c-.44-.1-.66.15-.99.32-1.04.56-3.44,1.77-3.32,3.03.39-.04.33-.54.72-.84,1.55-1.17,2.27.58,2.52.59.72.03-.07-1.2-.01-1.45.06-.3,1.17-1.6,1.09-1.66ZM127.91,38.16l-.24-4.32c-.41.07-.42.48-.54.77-.22.52-1.05,2.6-1.08,3-.12,1.2,1.69,3.31,1.15,4.86l.24-2.28c-.08-.85-.65-1.42-.24-2.28l.72.24ZM131.99,37.92h-2.4s.48,3.36.48,3.36c.34.35,1.86-2.97,1.92-3.36ZM125.44,40.73c.3-.26.31-.99.31-1.38-.98.75-1.99,1.47-1.68,2.88.47-.08.22-.82.6-1.2.22-.22.62-.17.77-.3ZM116.15,45.6c.85-.42,6.06-5.35,5.52-6-1.69,1.08-3.28,2.87-4.55,4.45-.19.24-1.13,1.37-.96,1.55ZM44.87,144.48v-3.36c1.79-.37,3.47-.82,4.8.72-.14-1.02.31-1.41,1.32-1.21s.24,1.44,1.32,1.45c.12-.13-1.41-2.57.54-2.11.62.15.71.67,1.14.91-.18-.94-.25-2.69,1.14-1.98.69.35.72,1.47,1.74,1.26l-.93-1.84c-.07-.75,1.48-.67,1.97-.52.69.21.39,1.1,1.12.91.01-1.61.66-2.26,1.92-.96l.11-.97c.25-.38,1.12-.22,1.43-.01.33.23-.16.94.62.74-.75-1.24.49-3.02,1.76-2.18.48.32.13,1.14.64,1.22.13-.75.39-2.07,1.34-2.17,1.12-.12.75,1.45,1.79,1.45.22-.23-1.42-1.67-.31-2.42.94-.63,1.41.53,1.99.98-.11-1.05.29-2.29,1.53-2.18l.75,1.46c.57-.25.15-2.08,1.21-2.18.79-.03,1.09.66,1.43,1.22.45-.19.35-4.08,2.3-2.3.45.41.27.98.69,1.1.45-.86-.27-1.81.64-2.38.41-.26.82-.05,1.05-.17.43-.22,1.21-1.12,1.77-1.01s.6,1.28,1.35,1.17c-.2-1.7.37-3.26,2.16-1.92-.22-2.19,1.33-1.61,2.4-.48l.22-1.82,1.46-.34.24.96c-.36-2.52,1.1-3.38,2.14-.81.24.61.33.58.28-.03-.07-.82-.48-1.5,0-2.27-5.03,1.58-9.64,4.4-14.48,6.52-7.2,3.17-17.72,7.74-25.36,9.21-2.62.5-2.51.19-4.84-.45-.69-.19-2.88-.09-2.8-1.24.06-.81,1.9-.54,2.44-.62,6.55-1.07,12.05-3.78,17.99-6.49,1.7-.78,3.68-1.08,4.96-2.6-2.86.78-5.46,2.3-8.17,3.47-3.34,1.44-8.08,3.77-11.46,4.62-2.17.54-10.71,1.14-11.8,1.88-.47.32-.36,1.28-1.35.6-.58-.39-1.91-3.7-2.2-4.52-1.6-4.69-3.14-10.91-4.37-15.79-.83-3.3-.68-5.61-.98-8.86-.23-2.5-.64-2.18-1.64-3.88-1.8-3.07-2.56-6.78-3.52-10.17l-.23-.17c-.56.37-3.36.15-3.48-.44.21-1.66,2.64-.74,3.59-1.9l-3.85-.46c-1.14-2.15,1.83-1.43,2.89-2.42-.64-1.05-3.84-.18-4.07-.97-.47-1.57,3.35-1.14,3.33-2.12-.05-1.94-2.64.14-3.17.37-.25.11-.27.33-.52-.04l-1.34-4.89,2.42-.87c-2.69.19-2.65-1.08-3.49-2.87-.26-.55-1.23-.86-.78-1.9,1.33-.79,2.8-.46,4.28-.52.03-1.04-1.1-.59-1.74-.77-1.18-.33-3.06-1.45-1.95-2.84,1.03,0,1.59,1.02,2.73.74.21-.21-.31-4.08-1.2-4.32v2.16c-.41.04-.21-.54-.63-.69-.54-.19-1.55.18-2.02-.14-1.12-1.09,1.89-1.21,1.09-2.29-.2-.28-5.52-.71-4.43-2.37.43-.65,3.39.38,3.34-.98l-4.04-.52v-1.14s2.84-.27,2.84-.27c-.57-1.15-3.58-.22-3.55-1.6.02-.97,1.41-.78,2.12-.92.25-.05.77-.02.71-.36-.98-.26-4.85-.41-3.96-2.16.58-1.15,2.81.19,3,0-.33-1.6-2.6-.39-3.35-1.81.21-.97,1.33-.77,2.03-.84.35-.03.7.2.6-.35-.53-.99-3.07-.99-3.33-1.96-.23-.84,1.06-1.14,1.65-.8.07-.62-.74-.89-.85-1.42s.82-1.14.1-2.51c-.48-.93-1.95-1.54-2.38-2.18-.94-1.4-.07-3.95-3.48-1.82l.39,1.54-.74.75,1.91,1.2c-.12.53-1.64.73-1.43,1.2s1.3.67,1.8.63c.95-.09,1.77-1.55,3.23-.37,1.74,1.41-1.84,1.28-2.53,1.53l-2.26,1.22c.8-.12,3.41.74,2.4,1.8-.39.41-2.03.47-1.45,1.45l2.41.35c.12,1.19-1.07,1.34-1.92,1.56,0,.36,3.16.39,2.36,1.76l-1.88.52c-.08,1.03,2.01.77,2.15,1.58l-1.44,1.21v.81c.73-.04,1.45.01,1.93.61l-1.2,1.31,2.88.73c.43.58-1.98,1.43-2.4,1.44l2.62,1.1c.39.96-1.94.74-2.14,1.78,1.13-.31,3.62-1.13,2.65.86l-1.69,1.06c.95-.02,3.05-.31,2.28,1.21-.21.41-1.44.74-1.32,1.31.41.73,2.18.01,2.4.73.34,1.11-2.52,1.18-2.04,2.28.63-1.18,3.13-.95,1.94.5-.45.55-1.38.67-1.81,1.3.3.66,2.37.03,2.15.96-.13.54-1.55.34-1.68.84,1.26-.13,4.03.02,4.28,1.61.28,1.77-3.15-.11-3.8.91,1.03.65,2.22.26,3.35.97,1.19.75,1.96,2.9,1.64,4.26-.14.6-.87,1.15-.81,1.98.07.91,1.47,1.16,1.34,1.67-.32.4-1.07.44-.96,1.08.71-.07,1.26-.02,1.67.6,0,.51-2.48,1.11-1.91,1.56.93,0,1.97-.19,2.64.61.13.59-1.39,1.34-1.92,1.31-.62.72,1.53.41,1.76.46,1.14,1.34-1.26,1.67-1.52,2.3-.27.67,1.55.16,1.69.76l-.04,1.25-.92.51,1.57.47c.37.52-.25,3.36.47,3.37.68-.8,1.64-.82,2.61-.68l.36.36c-.07,2.8,1.3,4.26-2.37,4.65-.17.7.63.34.63,1.08,0,.68-.68.35-.61,1.15.18,2.23,1.31,4.96,1.68,7.23.53.78,2.45-.1,3.36.01,1.78,2.46.77,5.3.95,8.16.22,3.6,1.86,10.63,4.08,13.44.8,1,6.32,5.61,7.37,5.83,2.04.43,2.59-.52,2.21-2.45-.1-.52-1.42-2.09.18-2.5,1.73-.44,1.84,3.02,2,4.05,1.36-1.04-.77-3.3.87-4.31l1.4,1.2.86,2.14ZM132.47,43.92c-.43.03-1.76-.2-1.86.35l1.07,6.06c.02,1.16-3.59,2.67-4.64,3.17-.41.2-1.1.21-1.24.31-.23.16-.26,1.21-.43,1.62-.51,1.19-2.88,2.35-1.67,3.8l1.57-.18-1.2,2.16c1.14-.35,2.75-.95,2.4-2.4.25-.31,1.15,1.02,1.17,1.12.13.71-3.35,3.38-3.09,4.64l4.65-2.36c1.1.2,1.68,5.1,1.6,6.1-.03.42.05.79-.38,1.07l-1.19-1.68c-1.22,1.13-2.77,2.09-3.97,3.24-.2.19-.95.83-.71,1.08.48-.46,3.64-2.86,4.08-2.4.1,1.49-1.5,2.5-.85,4.09.27.49,1.59-.73,1.99-.9.75-.32,1.84-.55,1.31.59-.35.77-1.35,1.22-1.74,1.98l2.16-.13.84,1.57c.32.07.54-.22.55-.54.02-.56-.76-2.96-.43-3.3.84-.26,1.15.94,1.79.95.92-.12,1.25-1.2,2.29-.95.27,1.13-1.69,1.18-2.04,1.92-.13.28-.42,2.07.24,1.92.71-.21,2.74-2.52,2.71-3.19-.03-.59-.64-1.19-.84-1.78-.47-1.42-.65-3.45-1.08-4.92-.16-.56-.64-1.09-.74-1.66-.09-.49.15-.91.09-1.23-.05-.28-.73-.23-.92-.82-.75-2.23-.61-5.61-1.97-7.89-.16-1.32,1.7-4.82,1.91-6.46.08-.66-.86-.2-1.44-.47-1.66-.78.4-4.05,0-4.44ZM129.35,47.04c-.3,0-.61-.02-.84-.24-.52-.5-.09-1.42-.6-1.69l.48,3.6c.53-.26-.05-1.24.96-1.2v-.47ZM115.91,51.84c1-1.35,2.87-2.32,3.12-4.08-1.15,1.13-2.55,2.59-3.12,4.08ZM134.87,50.4l-.72,1.56c1.69,1.43,1.79-.53.72-1.56ZM116.39,54.72c1.07-1.57,3.07-2.02,3.36-4.08-.32-.35-3.6,3.25-3.36,4.08ZM123.35,52.32c-.62,1.2-1.64,2.11-.36,3.35.46-.36.79-1,.83-1.58.02-.34-.08-1.59-.47-1.77ZM120.47,53.04c-1.36-.25-1.02.63-1.47,1.28-.66.96-1.7,1.83-1.88,3.04.63-.28,3.83-3.88,3.36-4.32ZM136.07,54.72c-.73-.18-.46.96-.7,1.58-.09.23-1.11,1.26-.38,1.29,1.36.07,1.62-1.85,1.08-2.87ZM121.19,56.16c-.47-.47-1.84,2.04-2.14,2.29-.87.74-1.8.4-1.45,2.26l2.87-3.25.73-1.31ZM118.31,63.6c1.16-1.26,3.46-2.56,3.6-4.32-1.48.97-3.29,2.53-3.6,4.32ZM136.79,62.16c.1.1,1.09.05,1.18-.39l-.58-1.53c-.46.21-.8,1.71-.6,1.91ZM122.63,62.64c-.62-.51-3.98,3.45-4.08,4.32.45.11.57-.25.84-.48,1.28-1.07,2.32-2.45,3.24-3.84ZM198.55,63.76c.41.29,2.33.54,2.32-.04l-2.87-1.08c-.13.14.41,1.02.55,1.12ZM138.95,66c.04-.68,0-1.58-.72-1.92-.37,1.46-1.28,3.08-.72,4.56.9-.24.28-2.46.48-2.64h.96ZM120.47,72.48c1.82-1.18,3.32-2.85,5.06-4.18.85-.65,4.54-2.34,3.71-3.51-.34-.37-.7-.23-1.1-.12-1.41.39-6.36,5.5-7.29,6.87-.2.29-.44.55-.38.94ZM120.23,68.88c1.14-.95,2.5-2.09,2.88-3.6-1.17.9-2.32,2.21-2.88,3.6ZM45.83,67.44c-.4-.4-3.93.8-4.56,1.09-.36.17-.59-.04-.48.59.97-.18,4.18-.33,4.79-.85.33-.28.27-.44.25-.83ZM43.91,71.28c-.01-1.54-1.62-1.33-2.4-.36,1.31,1.29,3.52.91,5.13.38.94-.65-1.49-1.75-2.2-.91-.19.22-.03.83-.54.89ZM34.55,115.2c-.15-1.81-.53-3.6-.72-5.4-1.24-12.08-2.99-24.32-7.2-35.76l-1.44-3.47,9.36,44.64ZM141.35,75.36l-.6-2.63-.83-.24-.36,1.93,1.79.94ZM47.51,73.43l-.55-.68c-.69.03-1.19.81-1.54.89-.29.07-1.48-.22-2.11-.2-.37,0-.96-.21-.84.36,1.49.95,3.5.04,5.04-.36ZM126.95,74.64l-.36-1.43c-.55-.03-4.16,3.24-3.96,4.31.23.23,2.15-1.28,2.41-1.55.8-.84.41-1.64,1.91-1.33ZM48.93,75.15c-1.97-.36-3.18,1.45-5.26.93v1.2s5.52-.48,5.52-.48l-.27-1.65ZM134.87,78.72c1.22.56,3.62.36,2.76-1.44-.61-1.28-3.06,1.02-2.76,1.44ZM125.99,77.76c-.31-.31-2.61,2.16-2.64,2.64.36.36,2.77-2.5,2.64-2.64ZM137.64,79.92c-.39.25-2.08,1.93-.96,2.16.79.16,2.4-1.93.96-2.16ZM229.91,108.95c.22-.29-1.21-2.31-1.48-2.71-5.02-7.54-10.47-13.73-14.72-22-.72-1.39-1.29-2.85-1.8-4.32-.46-.04-.21.75-.17,1.01.21,1.56,1.38,6.24,1.97,7.63.78,1.84,4.28,8.25,5.45,9.67,1.62,1.98,3.05,2.4,4.56,5.28.67,1.28,1.66,2.5.04,3.48-2.85,1.74-10.98-1.08-14.23-2.02-7.76-2.22-15.73-4.89-23.71-6.53-.82-.17-1.85-.22-2.7-.3.06.36.82.53,1.14.66,8.97,3.53,20.41,7.22,29.77,9.59,5.27,1.33,10.66,2.84,15.89.55ZM133.67,84.48c.69.08,1.37-.17,1.81-.72.31-.64.01-1.05-.49-1.44l-1.32,2.15ZM182.03,84.72c-1.13-.13-2.65,0-3.84,0-.06,0-.84.52-.84.72,1.86.16,3.67-.21,5.52-.24.09-.25-.74-.47-.84-.48ZM136.31,85.2c-.33-.27-2.25,1.19-1.92,1.92,1.13.1,1.52-1.13,1.92-1.92ZM214.07,94.08l-3.03-6.69c-1.11.45-5.05-1.98-5.1-.12-.02.74,1.95.78,2.56.98.96.31,2.01.59,2.69,1.39l-.85.6c-4.49-.33-9.26-2.81-13.67-3.13-.87-.06.14.98-.22,1.46l-1.1.23,1.91.85,1.32.12.35-1.11c1.51-.47,2.88.45,4.29.79,2.71.66,5.51,1.06,8.05,2.27l2.8,2.36ZM177.83,87.36c-.64-.04-.96.6-1.57.71-3.27.6-6.2-1.06-8.6-.93-1.34.07-3.55.95-5.1,1.16s-3.3.1-4.77.27c-4.44.52-13.86,8.02-17.41,11.15-.36.32-3.85,3.73-3.6,3.96.45.11.57-.25.84-.48,5.64-4.69,10.74-9.51,17.82-12.18,6.09-2.3,20.06-.83,26.35,1.13,6.92,2.16,14.18,3.31,21.33,4.59,1.66.3,12.29,2.97,12.87,2.37.03-.78-.87-3.34-1.61-3.55s-2.25-.2-3.2-.4c-2.8-.58-5.48-1.48-8.27-2.06-.67-.01-.59,0-.04.28.37.19.96.55,1.28.64.74.2,2,.58,2.64.72,1.84.39,3.41-.36,2.84,2.7-.2.34-1.13-.13-1.45-.24-1.24-.42-6.15-2.99-7.08-2.3-.35.25-.13,1.31-1.03,1.07-.52-.14-.93-1.16-1.35-1.54-.93-.85-10.24-4.17-12.06-4.74-2.58-.8-6.29-1.81-8.83-.89v-1.44ZM192.47,89.52l-6-1.44c.67,1.36,2.07.78,3.19,1.01.49.1.9.53,1.51.65.22.05,1.33.21,1.3-.22ZM196.79,91.2l-4.08-1.44c.45,1.16,1.37.79,2.18,1.06.48.16,1.59,1.06,1.9.38ZM26.87,96.24c-.07-1.37-.4-2.82-.79-4.13-.11-.38-.23-1.27-.65-1.39l.49,2.74.94,2.78ZM208.79,92.4l-4.56-.72,1.82.7c.67-.09,1.32.18,1.93.23.27.02.86.22.81-.21ZM156.95,93.35l-.12-.47-9,4.55c2.3.05,4.11-1.72,5.99-2.76.58-.32,3.01-1.19,3.12-1.32ZM181.67,97.44c-1.89-.33-3.66-1.1-5.51-1.58-1.32-.34-2.71-.68-4.04-1s-2.7-.37-4.13-.31c-.18.64,1.24.75,1.67.85,3.26.72,7.75,1.78,10.95,2.24.25.04,1.1.22,1.05-.21ZM29.99,101.04l-1.44-6,.35,3.13,1.09,2.87ZM140.63,96.24c-1.13.06-1.94.74-2.77,1.43-1.98,2.48-4.32,4.67-6.35,7.09-.23.27-.58.39-.48.84l9.6-9.36ZM162.47,96.96c-.51-.45-4.96.68-5.76,1.08-1.47.73-.5,1.18.78,1.02,1.08-.13,2.78-1.3,2.94-1.3.67.01,1.57,1.08,2.04-.8ZM166.79,97.44l-3.84-.48c.2,1.31,1.38,2.24,1.82.46.52-.19,1.72.65,2.02.02ZM200.39,98.88c-2.42-.93-4.92-1.41-7.44-1.92l2.4,1.08c1.46.02,2.94.8,4.22,1.06.23.05.89.18.82-.22ZM220.31,113.04c1.61-.82,2.9,1.3,1.08,1.46-1.21.11-5.24-.76-6.6-1.1-7.37-1.85-13.05-5.64-19.92-8.4-5.62-2.26-12.05-4.5-17.95-5.81-3.06-.68-6.29-1.35-9.4-1.51-.18.9,1.04.26,1.68.59.53.28.37,1.63,1.67,1.33-.04-.63-.11-.86.61-.73.61.11,1.1,1.58,2.88,1.47.83-.05.9-.79,1.67-.74.67.18-.18,1.74,1.32,2.28,2,.73,4.81,1.15,7.01,1.87,6.31,2.04,12.51,4.53,18.78,6.66,9.01,3.06,18.09,6.63,27.72,6.95l-4.3-2.05c-.52-.76-1.58-1.13-2.15-1.69-1.41-1.38-1.15-2.55-3.96-1.32l-.14.74ZM108.71,99.12c-1.29-.28-2.22.57-3.3.89-1.01.3-2.37.11-2.93,1.02l3.07-.65,3.17-1.26ZM119.03,100.8c-2.06-.41-4.14-.58-6.24-.48,0,.36.85.35,1.15.4,1.19.21,2.83.48,4.01.55.49.03,1.26.25,1.08-.47ZM128.63,119.76s-.28-.28-.69-.37c-1.12-.26-2.45-.13-3.63-.58.16.63,3,3.06.9,2.84s-4-3.45-3.54-5.48h-.96c-.54-.52,1.84-4.29,2.2-5.12.72-1.63,1.94-4.8,1.88-6.51-.02-.53-.64-3.71-1.08-3.73-.9-.03.3,1.76.35,2.05.11.65.07,1.91-.04,2.57-.07.44-2.37,5.14-2.59,5.33-.41.35-.92.4-1.43.37-.28-1.45.79-2.93.95-4.21.05-.42.02-.36-.36-.36-1.63.01-3.67,1.07-5.4.97.02.42.73.22,1.14.42.67.33,1.47,1.17,1.25,1.97-1.12.39-2.5-.07-3.35.85,1.87.8,4-.29,5.52,1.5s-.17,3.66-.22,5.72c-.01.58.33,1.17.22,1.77l1.07-.48c.67.82.04,1.3.97,2.16,1.21,1.12,3.73,2.15,5.23,1.22l.65.94c.89-.29,1.47-1.27,2.53-.49l.11.97c.84.24.81-.93,1.75-.69.77.2,1.22,2.76,1.99.43.99-.29,1.56.73,1.66.73s.43-.57.77-.68c.88-.26,1.45.48,1.83.4.29-.06.66-.7,1.11-.83.5-.15.87.17,1.28.11.46-.07.84-.69,1.25-.68.37,0,.59.52,1.14.45.58-.08,1.19-.92,1.62-1.29-3.93.3-1.03-1.53-.77-2.69.17-.75.29-3.04-.43-3.43.91,2.47-1.07,4.45-2.88,5.88-2.39,1.9-1.87.89-3.76-.09-2.82-1.47-3.69-1.15-6.67-1.49-.5-.06-1.05-.34-1.58-.46l.72,1.31c-1.32,1.31-2.7-1.35-.72-1.31ZM146.15,103.92c.49-.04,3.28-2.25,2.88-2.64-.74-.05-3.39,1.99-2.88,2.64ZM105.11,102c-.84-.2-1.57.38-2.3.46-.91.09-2.31-.16-3.06.06-.55.17-.75,1.08-1.23,1.41-.55.37-1.92.58-2.69.91-.19.08-1.69.62-1.28,1l10.56-3.84ZM116.15,102.96c-3.44-.96-6.46-.99-9.76.43-2.86,1.23-3.43,1.26-6.37,2.03-.28.07-1.11.31-1.14.65l3.12-.12c.83.63-1.97,1.17-.86,1.32,3.73-1.53,7.25-3.69,11.3-4.31h3.71ZM144.47,104.88c-.25-.25-2.35,1.69-2.4,2.16.39.35,2.71-1.85,2.4-2.16ZM99.59,107.76l-2.29.47-2.51,1.21c1.36-.29,2.84-.75,4.14-1.26.25-.1.71-.07.66-.41ZM110.63,108.72c-1.63.28-3.22.97-4.72,1.64-10.62,4.67-20.33,10.87-31.04,15.28l-8.39,5.64,8.31-4.04c7.31-2.37,13.13-7.51,20.22-10.26l15.63-8.25ZM129.32,110.37c-.14-2.53-1.76-1.41-3.08-.42l.23.69c-1.04-.19-1.66.37-2.16,1.2l5.01-1.47ZM234.89,129.18c-2.31-1.07-4.62-2.15-6.9-3.29-1.19-.6-3.39-1.47-4.25-1.99-.48-.29-.64-.89-.94-.99-.79-.27-1.27.6-1.9.7-1.65.26-5.72-1.8-7.49-2.33-2.83-.85-8.46-2.56-11.22-2.72-.56-.03-1.12.35-1.62.22-.3-.08-2.48-1.69-2.98-1.84-.72-.21-1.7.05-2.53-.11-1.87-.34-4.56-1.85-6.47-2.41-6.78-2.01-15.71-2.83-22.8-4.08-1.89-.33-4.45-1.34-6.33-1.59-1.19-.16-2.56.08-3.78-.03l-.4,1.45c.53-.36.72-1.29,1.56-.74.6.44.67,1,.6,1.7.66.09.37-.07.48-.36.23-.6.27-1.83,1.29-1.34l.39,2.41c.74-.25.46-1.95,1.1-2.15s1.13.63,1.06,1.19c.41,0,.14-.5.7-.62.39-.08.81.1,1.19.16l.03,1.89c.49-.15.48-1.11.84-1.44.83-.77,1.33.44,1.32,1.2.4.05.22-.56.62-.7,1.47-.51,1.23,1.91,1.66,1.9.8-2.28,2.24-2.27,2.28.24.76.13.72-.83,1.02-1.14.7-.72,1.59.62,1.38,1.38.46.03.15-.83.6-.96.87-.25,1,.98,1.44,1.44.12.06.36-1.19,1.19-.96l.61,1.68c.68-.37.5-1.61,1.54-1.43.55.17.68,1.87.62,2.39l.47-1.81c1.54-.33,1.81,1.86,1.69,3.01h.72c-.16-.69,0-3.04,1.05-2.87.86.14.64,2.6.87,3.34l.6-2.41c1.15-1.22,1.74,2.41,1.56,3.13.92-.4.42-2.13,1.2-2.53,1.24-.65,1.4,1.77,1.44,2.53l.84-1.92.7-.23.98,1.18c.07.03.21-.86.82-.46.18.12,1.04,2.63.98,3.1.57-.28,0-1.43.34-1.93,1.09-1.58,2.41,2.16,1.81,3.13.81-.4.18-3.21,1.52-2.85,1.11.3.87,3.14.88,4.05.89-.45.31-3.01.94-3.49.69-.53,1.46.76,1.46,1.33l1.08-.9c1.55.84.64,2.59,1.44,3.77.76,0-.25-3.17,1.39-2.59,1.21.43.85,2.53.89,3.56.96-.55.23-2.09.52-2.96s1.58-.13,1.84.49l.29,3.19.29-2.47c1.35-1.89,2.42,1.13,2.11,2.47.85-.58.23-2.77,1.69-2.3s.83,2.81.95,3.98c1.32-.82.26-2.67.5-3.44.46-1.43,2.3,1.02,2.62,1.16.66.29,2.08.16,3.07.53,1.55.57,2.39,1.87,2.19,3.53-.05.4-.79,1.71-.1,1.81,1.26.19.41-3.2,1.48-3.56.79-.25,3.52,1.08,4.57,1.35.59.15,1.22-.04,1.81.11.13.03,2.32,1.04,2.46,1.14.46.28,1.33,1.66,1.45,2.17.15.61-.45,1.42.1,1.68.43-1.05.13-2.15.27-3.22.24-1.9,1.71-.15,1.88.95.22,1.43-.49,2.34-.46,3.7,2.23-.66,1.38-3.56.9-5.22ZM33.83,120.48l-.4-3.08-2.24-7.72c-.03,2.73.6,5.45,1.43,8.04l1.2,2.76ZM137.15,110.16c-1.18-.26-3.16.19-4.44,0l4.8,1.08c1.57.69,2.89,1.05,4.18,2.26.85-1.43,2.64-1.62,3.02-3.35-1.39,1.74-1.91.4-3.23.46-.81.03-1.57.79-2.39.73s-1.38-1.07-1.93-1.19ZM196.55,110.64c-.44.39,2.18,2.05,2.15,1.08,0-.3-1.87-1.33-2.15-1.08ZM98.15,112.08c-.86.08-1.72.42-2.52.71-3.61,1.29-7.04,2.62-10.5,4.32-9.5,4.66-19.81,9.17-29.99,12.55-2.18.72-10.14,3.47-11.85,3.51-.91.02-3.31-.4-4.02-.97-1.45-1.14-1.79-7.62-2.18-9.58s-1.3-3.82-1.74-5.7l-.79-1.49,2.88,15.25-.11.84-1.1.22,1.02,2.58c1.01.72,8.77-1.43,10.39-1.86,11.38-2.99,22.17-7.78,32.91-12.45l17.6-7.96ZM200.39,114.48c-.42-.39-1.76,1.06-1.92,1.44,1.07.2,1.8-.34,1.92-1.44ZM102.47,117.12c-.67.16-1.08.68-1.76,1-1.13.55-2.64.74-3.57,1.17-.83.38-1.76,1.45-3.31,2.03-.68.25-1.16-.2-1.44.72,1.07.33.95.94,1.67,1.56-.22-.86.18-2.59,1.3-2.42.35.05.56,1.88,1.34,1.7l.24-2.64c.35-.06.57,0,.85.22.52.39.3,1.34,1.06,1.22-1.43-2.91,1.06-3.77,2.28-.96.8-.58-.07-1.42.16-2.22.1-.33,1.3-1.25,1.16-1.37ZM209.58,117.76c-.23-.15-1.29-1.58-1.51-.17l4.08.96c-.54-.79-1.73-.23-2.57-.8ZM216.95,119.04c-1.06.03-2.46-.97-3.36-.12,1.04.27,2.24-.18,3,.83l.36-.71ZM58.31,126.48c-4.12.66-7.92,2.52-11.95,3.53-1.28.32-4.04,1.22-5.09.43-.9-.68-1.26-5.06-1.44-6.36l-.98,2.04,1.74,5.12c.63.39,4.57-.51,5.53-.75l12.19-4.01Z"/>
      <path d="M61.25,40.98c-.32-.34-.07-1.1-.53-1.14-.19,1.65.15,2.91.96,4.32l.72-2.4c.37-.02.57-.08.83.24.33.4,1.29,4.17,1.62,5.1.2.56,2.78,5.11.32,4.24-.53-.19-.14-.96-.62-.94-.02.59.09,1.46-.54,1.75l-10.26,1.6c.02-.26-.05-.56.03-.81.24-.71,5.3-1.19,6.4-1.52.63-.19,1.62-.36,1.74-1.14-.89.35-5.86,1.54-5.95.24l.43-1.08c-2.29-.04-.8-3.63-2.88-4.08-.17.18,2.02,4.17.24,4.44l1.2.48.21.68c-1.1,1.3-2.81,2.26-4.04.64-.04.67.79.88.86,1.55.05.42-.24.81-.73.59s-1.8-3.48-2.06-4.18c-1.79-4.83-2.97-12.38-5.42-16.66-1-1.74-2.53-1.44-4.17-2.07-.86-.33-1.94-.68-1.69-1.79,1.29-.33,2.27.64,3.29.91,3.41.89,7.42,1.3,11,1.02s5.63-2.4,7.92,1.9c.57,1.06,2.73,6.86,2.47,7.76-.18.61-.92.81-1.34.36ZM59.51,37.2c-.22-1.88-.66-4.27-2.16-5.52.52,1.81.92,4.08,2.16,5.52ZM50.87,32.88l-6-.48c-.08.69.45,2.38,1.08,2.64.52.21.33-.97.72-1.43.34-.4,1.35-.76,1.68-.26l.11.97.96-.48.12.96c.49-.61,1.44-1.02,1.32-1.92ZM56.09,32.7c-.44-.43-2.02-.47-1.86.3l2.16.84c.11-.12-.12-.96-.3-1.14ZM48.23,40.08c.62-1.86-.24-4.06-1.08-5.75-1.09,0,.3,4.44.53,4.98.12.29.14.71.55.77ZM51.11,37.2c.14.17,2.4-1.65,1.07-1.92-.55-.11-1.15,1.46-1.07,1.92ZM59.99,49.44c.17-1.77-1.96-4.55-1.57-6,.14-.53.8-1.08.83-1.54.1-1.77-2-5.49-3.82-6.13.05,1.59,1.73,1.99,2.45,3.19.62,1.04.88,2.37.56,3.55-1.46.18-.48,1.17-1.21,2.14-.54.7-1.77.44-1.8,1.44,1.53-.15,2.19-.72,3.22.74.76,1.08.87,1.66-.1,2.62h1.44ZM54.64,37.99c-.54-.46-1.41-.46-1.37.4l.86.23c.13.16-.41,1.32.93.97.64-.17-.22-1.43-.43-1.6ZM51.59,43.68l-1.2-4.08c-.35,1.32-.75,4.03,1.2,4.08ZM53.03,42.95c1.37.58,1.76,2.18,3.12.36.18-.83-2.02-.62-2.52-.59-.27.01-.66-.16-.59.24ZM52.07,49.44c-.08-.32.8-2.66.12-2.63-.44.02-.99,2.39-.12,2.63Z"/>
      <path d="M101.22,54.52c-1.22-.26-1.08-1.64.05-1.12.42.2,1.59,1.68,1.59,2.16,0,.41-1.7,2.8-2.06,2.9-2.13.59-1.5-2.4-1.99-2.96-.53-.36-1.11-.31-1.71-.28-6.68.43-15.65,4.14-21.92,6.65-1.36.54-2.69,1.99-4.39,1.49-.08-.53.41-.78.79-1.01.96-.59,5.95-2.5,6.29-3.07.63-1.03-.76-3.49-.22-3.87,1.18-.83,3.94,1.3,3.12,2.44-.29.41-1.1-.04-1.1.46,2.45-.14,5.58-1.33,7.84-2.36.77-.35,2.25-1.66,2.39-1.69.33-.06,2.5,1.02,3.44.19l-.47-3.11.92.04c.23,2.98,1.28,3.32,4.12,3.09.68-4.01-2.03-2.26-4.03-3.96.36-1.33,1.76-.73,2.83-.85l-.48-1.44c1.89.43,2.53,2.88,3,4.56.37,1.32-.05,3.49,1.81,2.78l.18-1.05Z"/>
      <path d="M55.91,57.84c.5.49-.83,2.4-1.2,2.88,2.12,0,1.9,3.21,2.33,4.75.17.6.86,2.47,1.27,2.81.18.15.46.27.48-.05.05-1.24,2.15-.63,2.41-2.12.04-.43,0-.37-.37-.37-.98-.02-1.18.47-1.8,1.09l-.48-.25.72-3.47c.65-.18.41.42.87.68,1.24.7,2.88.51,2.48,2.79s-4.04,1.43-3.59,3.97c.37-.07.36-.5.77-.79,1.76-1.26,3.29.86,1.61,1.85-.55.32-2.02.34-2.14.74-.28.97,1.12.54,1.14,1.48l-.79,1.53c-.33.04-.48-.02-.71-.25-.45-.45-1.4-4.89-1.73-5.95-.3-.95-2.16-7.26-2.5-7.46-.23-.14-.91.07-1.41-.15-.24-.11-.44-.53-.74-.7-.88-.49-2.16-.51-1.5-2,.49-1.1,1.38,0,1.93.13,1.08.26,2.53.28,2.23-1.15h.72Z"/>
      <path d="M87.3,25.03c1.84-.18,4.47-.45,5.8,1.01,0,.73-5.37.54-6.11.6-4.24.39-8.43,1.92-12.35,3.49-2.27.9-5.3,2.74-7.51,3.3-.36.09-.34.26-.66-.19l.38-1.05c6.25-2.65,13.61-6.5,20.44-7.16Z"/>
      <path d="M109.91,75.6c-6.97-.21-13.91.38-20.69,1.99-2.22.53-4.36,1.69-6.67,1.61-.77-.66,2.82-1.77,3.07-1.85,5.59-1.74,16.78-3.59,22.49-2.95.7.08,1.8.3,1.8,1.2Z"/>
      <path d="M99.59,39.84c-.2.26-4.72.92-5.4.96-.85.05-2.64-.28-3.06-.19-.34.07-1.73,1.02-2.34,1.27-3,1.22-6.49,2.62-9.53,3.67-1.29.45-2.49.96-3.9.77.52-1.65,3.03-1.62,4.45-2.15,3.5-1.31,6.74-3.05,10.43-3.97,2.72-.68,5.5-.85,8.27-1.31.49.09,1.17.33,1.09.95Z"/>
      <path d="M63.59,29.52c4.56-1.29,8.73-3.74,13.26-5.11,1.32-.4,3.83-1.47,4.74-.3,0,.78-5.51,2.19-6.53,2.58-2.78,1.04-7.86,3.8-10.62,3.56-.49-.04-.91-.14-.84-.74Z"/>
      <path d="M76.95,67.99c.49.71.57,2.71,1.23,3.61-.07.29-.23.54-.43.76-.63.71-5.13,2.3-6,2.16-.23-.04-.65-.13-.48-.48.64-1.3,6.19-1.57,5.28-4.2-.69-.22-.45.59-.86.71-.44.12-1.06-.4-1.61-.39-.39,0-1.25.31-1.67.46-.58.21-3.54,2.07-3.77,1.02-.21-.97,4.61-1.99,5.18-2.5.6-.54.19-2.61,1.23-2.87.84-.22.98.84,1.32,1.27.19.25.53.35.6.46Z"/>
      <path d="M67.67,62.64c-.59-1.43-1.04-3.66-2.57-4.27-1.71-.68-1.46.02-2.64.38-.64.2-1.55-.23-1.94.65.51.73.78,1.43,1.03,2.29.11.38.59,1.54.12,1.8-.39.2-.46-.43-.55-.65-.32-.77-.38-1.59-.77-2.36-.14-.28-.01-.57-.48-.46-1.58.9-.87,3.5-2.52,4.08-.57-5.43,4.28-8.06,9.12-6.6.93.28,1.79.6,1.93,1.67.05.34.2,4.21-.73,3.49Z"/>
      <path d="M53.06,56.85l-.05-1.02c.25-.32,1.16-.09,1-1.11,3.32.43,7.42.13,10.66-.74.86-.23,4.26-2.15,3.45.56-.45,1.5-5.87,1.21-7.28,1.37-1.26.15-7.15,1.3-7.78.93Z"/>
      <path d="M84.18,49.51c1.37-.12,4.44-.29,5.69-.07.28.05.43.13.59.36,0,1.08-5.5.99-6.35,1.08-1.23.13-2.85.26-4.02.54-2.18.53-4.46,3.12-6.67,1.97-.24-1.13,5.84-2.9,6.91-3.17,1.24-.32,2.57-.6,3.84-.72Z"/>
      <path d="M91.07,32.88c-2.82.27-5.83,1.69-8.64,2.17l-.6-.72c3.8-1.26,7.66-2.41,11.67-2.85,1.05-.12,5.81-.77,6.08.6.05.25-.51.81-.59.81-2.48,0-5.53-.23-7.92,0Z"/>
      <path d="M113.51,65.52c.59.63-1.3.5-1.57.49-1.19-.05-2.44-.53-3.57-.5-1.8.05-3.93,1.12-5.54,1.21-.86.05-1.55-.26-2.38-.25-1.8,0-3.49.55-5.17.25-.08-.39.1-.5.39-.69.94-.61,6.7-1.15,8.13-1.23,1.64-.09,8.79-.25,9.72.72Z"/>
      <path d="M61.6,74.66c.29-.07.47,0,.69.19.39.32.5,3.44.66,4.39.25,1.47,1.7,5.68,1.48,6.71-.25,1.15-2.15.77-2.29-.16-.1-.68.4-.96.49-1.45.22-1.19-.88-3.51-1.18-4.8-.23-.99-1.16-4.55.15-4.88Z"/>
      <path d="M95.03,84.72c.13.64-.16.41-.47.6-1.44.85-3.12.83-4.69,1.32-2.42.75-6.04,3-8.09,3.45-.47.1-.69.05-1.14-.09.25-1.56,2.42-2.14,3.72-2.64,3.25-1.28,7.2-2.6,10.68-2.63Z"/>
      <path d="M47.51,24.24c1.02,1.52-4.2,1.25-4.89,1.17-.85-.1-5.36-1.93-5.19-2.73.06-.28.52-.38.82-.36.9.06,2.45,1.2,3.68,1.38,1.85.27,3.76-.23,5.58.55Z"/>
      <path d="M83.27,16.8c.13.64-.16.41-.47.6-2.81,1.65-5.99,2.38-9.02,3.47-2.4.87-4.8,2.51-7.55,2.41-.09-.54.34-.65.72-.84,2.31-1.18,5.69-1.44,7.98-2.34.43-.17.69-.62,1.13-.79,2.37-.93,4.71-1.96,7.21-2.5Z"/>
      <path d="M83.03,70.08c.02-.28-.13-.52.15-.74.49-.38,2.99-1.38,3.68-1.55,1.23-.31,4.5-1.01,5.66-1.07.49-.03.97-.11,1.31.36-.5.66-1.36.77-2.1,1.01-.99.32-8.38,2.31-8.69,1.99Z"/>
      <path d="M109.67,25.19c-.14.22-4.3.4-5.1.55-.67.12-3.61,1.35-3.78.53-.24-1.1,4.55-2.4,5.42-2.49,1.03-.1,3.61-.02,3.45,1.41Z"/>
      <path d="M89.27,80.16c.53.46-2.32,1.52-2.58,1.62-1.75.72-5.31,2.21-7.01,2.59-.49.11-.96.14-1.45.1-.05-.36,0-.57.22-.86.44-.59,10.33-3.89,10.82-3.46Z"/>
      <path d="M110.15,23.04l-9.36,1.44c-.04-.6.61-.97,1.03-1.25,1.43-.92,3.88-1.5,5.56-1.39.38.03,3.29.47,2.76,1.19Z"/>
      <path d="M83.75,41.52c-.78-.12-4.63.92-4.8.12-.18-.86,2.2-1.21,2.37-1.71l-.45-3.2c1.49-.24,3.49,4.2,2.88,4.8Z"/>
      <path d="M62.87,59.4l.6-.36c.45.99.97,1.39,1.8,2.04.1.47-2.5,1.55-.85,2.53.94.56,1.52-.02,2.38-.3.35-.11.28-.31.64.17-.45,1.65-2.11,2.31-3.58,1.42-.26-.15-.98-.98-.98-1.18v-4.32Z"/>
      <path d="M104.63,77.52c-.07-.51-.02-.39.3-.54,1.61-.73,7.21-.56,8.93.06.37.13.61.27.84.59-1.04,1.21-1.93.23-2.99.11-2.32-.26-4.77.31-7.09-.23Z"/>
      <path d="M71.99,24c.02-.28-.13-.51.15-.74.43-.35,5.28-1.89,6.2-2.15.84-.24,1.7-.49,2.58-.56,1.28-.1,1.21.36.15.88-.95.47-2.17.79-3.19,1.13-.8.27-5.56,1.76-5.89,1.43Z"/>
      <path d="M109.9,30.01c0,.27.1.71-.02.91-.2.33-4.42.9-5.25,1.11-.5.13-2.47,1.28-2.64.48-.22-1.05,2.66-1.89,3.42-2.1,1.47-.39,2.99-.7,4.49-.4Z"/>
      <path d="M37.61,25.24c1.14-.25,3.38.72,4.61,1.05.7.19,1.82-.15,1.69.95-2,1.08-4.05.04-5.94-.54-.5-.15-1.16.12-1.5-.42.29-.5.52-.9,1.13-1.04Z"/>
      <path d="M109.19,28.07c-1.16.48-2.53.31-3.66.54-1.51.31-2.79,1.07-4.26,1.14-.02-.33-.04-.65.12-.96.42-.84,6.62-2.31,7.7-1.45l.11.73Z"/>
      <path d="M106.55,20.64c.09.52-.04.48-.47.6-.89.24-5.89.65-6.25.12-.17-1.17,1.19-1.35,2.04-1.43,1.56-.14,3.22.18,4.68.72Z"/>
      <path d="M107.51,85.44h4.2c.48,0,3.11.71,3.56,1,.28.18.66.42.63.8-.22,1.04-3.36-.38-4.03-.52-1.43-.32-3.39-.15-4.37-1.27Z"/>
      <path d="M103.19,35.52c-.13-1.33,2.3-1.96,3.3-2.1s2.76-.36,3.41.54c0,.44-6.45,1.81-6.71,1.56Z"/>
      <path d="M100.07,77.76c.14.71-1.28.85-1.77.99-1.87.52-4.52,1.2-6.39,1.55-.38.07-.76.19-.96-.26-.16-.36,1.01-.78,1.27-.88,2.32-.9,5.37-1.3,7.84-1.39Z"/>
      <path d="M64.31,35.52c-1.54.14-1-1.87-1.25-2.71-.09-.32-.64-.74-.86-1.3-.16-.39-.68-2.24-.52-2.46,1.87-.69,1.88,2.34,2.22,3.65.26,1.03,1.01,1.48.41,2.83Z"/>
      <path d="M73.19,37.92c-.08-.38.12-.49.36-.72.6-.56,3.93-1.65,4.87-1.85,1.04-.22,2.76-.29,1.1.85-.67.46-5.82,2.16-6.32,1.72Z"/>
      <path d="M73.67,34.8c.12.64-.14.42-.48.59-1.12.55-6.86,3.22-7.68,2.53-.1-.5.25-.56.55-.76.65-.44,5.22-2.1,6.1-2.3.49-.11,1.01-.05,1.51-.05Z"/>
      <path d="M72.18,37.72c.46-.04.75.02.77.55-.51.71-5.73,3.25-6,1.92-.17-.83,4.46-2.41,5.23-2.47Z"/>
      <path d="M117.35,81.36c-1.5.01-3.15.02-4.62-.3-.33-.07-1.25-.26-1.14-.77.3-1.45,5.6-.62,5.76,1.08Z"/>
      <path d="M115.6,90.77c1.01-.23,3.17.05,4,.7.72.56.45,1.19-.41,1.16-.41-.02-3.82-.64-4.06-.76-.85-.43-.17-.94.48-1.09Z"/>
      <path d="M79.94,70.05l1.55-.15.36.54-.12.37c-.75.64-1.87.63-2.71.18.03-.85-1.64-2.37-1.49-2.94.29-1.18,2.74,1.13,2.42,2.01Z"/>
      <path d="M90.23,17.52c.09.63-.61.78-1.04,1-.59.31-5.92,2.34-6.16,2.12-.08-.43.21-.6.49-.82.74-.58,6.27-2.67,6.7-2.29Z"/>
      <path d="M75.54,42.42c.1-.06.15-.43.45-.61,1.87-1.1,2.11,1.21-.4.82l-6.06,2.79c-1.29.24-.31-.88.18-1.27s3.31-1.5,3.89-1.63,1.59.1,1.94-.11Z"/>
      <path d="M89.27,90.48c.1.49-.24.56-.55.77-.66.45-3.63,2.12-4.31,2.41-.38.16-.71.24-1.13.19-.09-.49.06-.64.35-.96.59-.64,5.03-2.92,5.64-2.39Z"/>
      <path d="M59.75,78c-.36,1.17,1.77,2.67,1.9,3.04.46,1.34-1.81,1.7-2.27.34-.19-.58-.19-2.37-.11-3.02.04-.33.15-.72.48-.36Z"/>
      <path d="M94.07,64.31c-.95.42-4.61,1.2-5.28.48-.4-.42.15-.4.34-.5,1.03-.53,3.46-1,4.54-.66.32.1.47.35.4.68Z"/>
      <path d="M91.91,93.84c.31,1.37.52,3.73-.18,4.97-.15.27.02.41-.53.31-.23-1.23-.4-2.69-.22-3.94.07-.51.25-1.43.94-1.34Z"/>
      <path d="M108.71,36.72c.15,1.2-3.94,2.28-4.32,1.92-.22-.85,1.02-1.33,1.68-1.55.92-.31,1.63-.48,2.63-.36Z"/>
      <path d="M89.27,95.28c.37,1.39.43,3.4-.18,4.73-.15.32-.02.38-.54.3-.07-1.13-.32-2.04-.21-3.21.03-.3.29-2.29.93-1.83Z"/>
      <path d="M44.62,36.49c.9,1.39-3.59,1.52-3.6.11,0-1.14,3.34-.5,3.6-.11Z"/>
      <path d="M43.19,34.08c-1.16.43-2.25.23-3.42,0-1.56-2.55,4.07-.87,3.42,0Z"/>
      <path d="M78.71,16.8c.14.68-1.24.86-1.74,1.02-1.33.44-2.86.91-4.26.89-.12-.62.14-.42.47-.6,1.54-.84,3.8-1.05,5.53-1.32Z"/>
      <path d="M73.91,83.28c-.76-.67,3.3-2.3,3.73-2.39.17-.04.87-.42.82.11-.04.5-3.71,2.69-4.55,2.28Z"/>
      <path d="M108.94,40.78c-.09.13-2.71.89-3.04.93-1.14.14-.73-.74,0-1.21.81-.52,3.95-1.11,3.04.28Z"/>
      <path d="M73.91,46.56c.75.63-3.64,2.38-4.08,2.4-.42-1.34,3.62-2.78,4.08-2.4Z"/>
      <path d="M100.07,84c-.15-1.45,3.85-1.47,3.83-.84-.94,1.25-2.48.76-3.83.84Z"/>
      <path d="M94.78,13.42c-.23.35-2.86.71-3.1.49-.21-1.6,4.03-1.91,3.1-.49Z"/>
      <path d="M44.84,40.34c.11.29.24.55.1.87-1,2.25-4.96-1.45-.1-.87Z"/>
      <path d="M97.67,14.4l-.14.74c-.98.31-2.34.92-3.22.1-.23-1.04,2.86-.87,3.36-.84Z"/>
      <path d="M67.43,20.16c.12.64-.14.42-.48.59-1.07.53-2.39.92-3.6.85,0-1.73,2.92-.95,4.08-1.44Z"/>
      <path d="M92.27,48c.96.75,1.29,2.32.24,3.11-.92-.79-1.21-2.24-.24-3.11Z"/>
      <path d="M83.75,66c0,.99-1.33.81-1.97,1.03s-1.36,1.22-2.1.29c.02-.45,3.44-1.62,4.07-1.32Z"/>
      <path d="M104.66,55.4c-.44-.69.6-2.42,1.54-1.67,1.13.91-.92,2.65-1.54,1.67Z"/>
      <path d="M82.25,75.67c.4.38.9,2.18.18,2.33-1.51-.24-1.69-3.77-.18-2.33Z"/>
      <path d="M103.89,47.26c-.74.36-1.73.33-1.85-.63-.24-1.95,2.23-.86,1.85.63Z"/>
      <path d="M87.83,64.8c.64.54-2.8,1.91-3.36,1.2.66-1.12,2.17-1.27,3.36-1.2Z"/>
      <path d="M45.02,44.41c.87-.25,2.04,1.3,1.3,1.8-1.07.73-2.41-1.48-1.3-1.8Z"/>
      <path d="M108.95,44.88l-2.24.2-.29-.19-.11-.73c.24-.37,2.79-.36,2.64.71Z"/>
      <path d="M114.11,66c.35-.02,2.16,1,2.04,1.55-.79,1.4-3.15-1.47-2.04-1.55Z"/>
      <path d="M100.77,47.74c-.29.2-1.13-.08-1.3-.46-.53-3.17,2.41-.31,1.3.46Z"/>
      <path d="M94.68,36.96c1.56.06,1.72,2.44-.03,1.7-.47-.4-.54-1.31.03-1.7Z"/>
      <path d="M116.39,84c-.49.02-.97.04-1.45-.11-.23-.07-1.37-.62-1.19-1.09.91,0,2.79-.17,2.64,1.2Z"/>
      <path d="M95.49,92.89c1,2.76-1.58,3.02-.72.12l.72-.12Z"/>
      <path d="M71.51,18.72c-.22,1.39-2.1,1.21-3.12,1.2.17-.54,2.99-1.31,3.12-1.2Z"/>
      <path d="M98.15,87.83c-.32.11-2.92,1.1-2.87.36.02-.28,3.1-1.71,2.87-.36Z"/>
      <path d="M70.31,58.32c.11,1.09-.61,1.95-1.68,1.44-.14-.94.85-1.47,1.68-1.44Z"/>
      <path d="M70.07,23.76c.6.55-2.49,1.63-2.88,1.44-.61-.54,2.6-1.41,2.88-1.44Z"/>
      <path d="M107.27,60.96c0,1.09-1.41.65-2.16.72v-.71c.79-.16,1.38-.35,2.16,0Z"/>
      <path d="M97.19,23.75c-.71.18-2.1.7-2.16-.47.71-.18,2.1-.7,2.16.47Z"/>
      <path d="M62.39,18.72c.1.92-2.01,1.26-2.16.6.16-.97,1.47-.51,2.16-.6Z"/>
      <path d="M114.64,70.82c.51-.17,1.42.65.8,1.06l-1.45-.25.65-.81Z"/>
      <path d="M60.23,22.55c-.4.07-1.64.62-1.92.24-.48-.64,1.94-1.72,1.92-.24Z"/>
      <path d="M96.95,52.8c.74.7-2.26.46-2.4.48,0-1.14,1.71-.58,2.4-.48Z"/>
      <path d="M167.73,20.85c-.69.46-1.73-.55-1.18-1.42-.68-.06-1.38.33-1.68.96l1.2.25c.72,1.08-2.84,1.57-3.24,2.4-.29.58-.02,1.8.29,2.35.28.5.68.22.77.31.5.53-.94,2.9-1.54,2.81-1.59-1.41-.06-4.12-1.52-5.59,0-.56,3.14-1.77,2.6-2.28-2.02.71-3.77,3.35-6.18,2.34-1.42-2.98,1.08-6.06,3.44-7.63,1.98.5,5.73.26,6.77,2.34.28.55.82,2.79.27,3.16ZM162.47,19.68c-1.22.43-2.26-.4-3.48-.25-.44.05-.39-.07-.36.48,1.39-.23,2.77,1.36,3.84-.24Z"/>
      <path d="M174.23,36.96c.09.14.04.72-.24.84-2.32.63-4.69-.04-7.09.11-3.85.24-17.74,5.02-20.63,7.45-1.9,1.6-1.8,1.06-3.65,2.11-1.01.58-2.08,1.86-3.26,2.27-.31.11-.8.3-.89-.18-.21-1.1,4.85-3.79,5.3-4.54.32-.53.2-2.14.83-2.3.74-.18.58,1.49,1.31,1.2.06-1.47,2.77-1.5,4.15-1.98,4.94-1.73,9.49-4.37,14.76-5.16,1.34-.2,8.88-.64,9.41.18Z"/>
      <path d="M176.39,45.6c-4.87.78-9.91-.58-14.64,1.09-.97.34-1.28,1.21-1.6,1.28-.43.1-1.84-.11-2.96.15-5.92,1.37-11.31,4.91-16.07,8.41-.33.24-.5.45-.97.35,4.78-5.94,11.66-8.65,18.73-10.91.47-.45-.29-3.09,0-3.97,2.26-.27.98,2.47,2.06,3.57,1.73-.38,3.5-.76,5.27-.93,2.47-.24,6.22-.47,8.65-.25.81.07,1.69.17,1.55,1.21Z"/>
      <path d="M151.67,25.68c-.53.29-.46,1.16-.84,1.67-.55.74-5,3.32-5.66,2.25-1.22-2.01-.03-8.66,2.43-9.55,1.56-.57,3.62,1.24,4.55,2.39.47.58.95,1.92,1.54,2.3.5.32,2.98.26,1.23,1.19-1.49.8-3.11,2.78-3.25-.25ZM146.39,24.84c-.13,1.09.09,2.37,0,3.48,1.65.4,4.71-2.47,2.16-3.36.48,2.92-2.52,4.07-1.91.13.35-2.24,3.35-2.36,3.35-2.66-.77-.33-1.43-.16-1.8-1.08-.85-.09-1.72,2.8-1.8,3.48ZM151.19,23.04c-2.46.67-.13,2.49.22,1.28l-.22-1.28Z"/>
      <path d="M175.25,14.94c.96-1.05,1.04,1.57,2.1,1.14.57-2.83-2.52-3.58-3.81-1.05-.35.7-.17,1.37-.44,1.96-.32.67-1.5.75-1.02,2.21l.84-1.19.33.39c.09,2.55,1.33,5.11,1.47,7.65.02.37.13,1.72-.6,1.55-.52-.39-.56-1.16-.92-1.61-.18-.23-.68-.35-1-.8-.82-1.18-2.2-8.63-2.05-10.19.3-2.99,1.78-2.34,1.8.36.87-1.43,2.87-5.02,4.91-3.71,1.62,1.04,3.21,3.76,1.05,5.11-2.41,1.5-3.93-.43-2.66-1.82Z"/>
      <path d="M148.13,38.93l-.28,1.51c-.69.45-1.59-.44-1.68-.37-.16.94-1.34.84-2.16,1.33-1.45.87-4.8,4.13-6.13,4.19-.38.02-.42.04-.36-.36,1.28-2.01,3.46-3.61,5.51-4.81,6.88-4.02,18.05-8.91,26.05-9.02.84-.01,1.51.42.97,1.23-.41.61-4.28.6-5.23.77-2.14.37-5.03,1.13-7.14,1.74-3.38.98-6.3,2.56-9.55,3.77Z"/>
      <path d="M143.44,31.13c-.28.29-.97.54-1.38.9-.36.32-.63,1.06-.95,1.21-.42.2-.95.05-1.43.25-.93.38-3.87,3.37-4.7.85-.26-.79.22-5.28.48-6.27.71-2.61,2.38-3.28,4.22-1.08.64.77,1.34,2.93,1.67,3.13.77.48,2.76-.91,2.54.13-.2.25-.24.66-.45.88ZM136.31,34.56c.79-.89,1.94-1.37,2.81-2.11.27-.23.66-.27.54-.77-1.25.73-3.77,1.05-3.36,2.88Z"/>
      <path d="M185.27,73.2c-.3.4-3.27-.22-3.95-.25-2.95-.1-6.44-.14-9.38,0-.98.04-3.05.6-3.82.5-.32-.04-.68-.26-.61-.61.92-1.34,2.3-.84,3.42-1.14.34-.09.63-.51,1.06-.62,1.95-.45,11.31.24,12.87,1.43.19.14.61.39.4.68Z"/>
      <path d="M156.95,53.28c0,.32.06.66-.12.96-.25.41-7.49,3.26-8.77,3.95-1.99,1.08-3.61,2.44-5.51,3.62l-.73-.26c-.02-.98,1.42-1.24,1.63-1.96.35-1.23-.64-3.25,1.56-2.66.46.12.75.54,1.07.63.75.19,2.88-1.41,3.81-1.84s6.54-2.95,7.05-2.43Z"/>
      <path d="M174.98,18.99c3.49-.71,1.78,3.96,1.66,5.85-.11,1.76.3,3.41.64,5.11.25,1.24,2.09,7.26,1.96,7.8-.07.28-.38.44-.56.64-.52-.52-.74-1.24-.96-1.91-.73-2.22-1.54-6.42-1.97-8.83-.51-2.83-.28-5.82-.76-8.67Z"/>
      <path d="M189.59,76.32c-4.69-.45-9-1.45-13.8-1.2-1.04.06-2.3.44-3.35.49-.35.01-.97.19-.85-.37,1.12-.76,2.92-1.33,4.26-1.5,3.1-.37,8.15.31,11.2,1.15.22.06,3.2.86,2.54,1.42Z"/>
      <path d="M152.63,78.96c-.86.48-4.26,3.04-4.79,2.77-.68-.34-.44-.82-.11-1.32,1.15-1.76,9.28-6.65,11.38-6.87,1.18-.13,1.26.35.32,1.05-2.4,1.81-4.17,1.79-6.8,4.36.54-.3,1.27-.42,1.9-.86.31-.21,1.24-1.29,1.34-1.3.28-.02.3.32.17.64-.3.7-2.9,2.71-3.67,3.29s-1.52,1.17-2.37,1.58c-.34-.43,2.18-2.92,2.64-3.36Z"/>
      <path d="M161.03,63.36c.42,1.81-2.31,2.04-3.69,2.67-.98.45-4.21,1.98-4.59,2.85-.18.41-.08,1.15-.12,1.2-.05.05-1.11-.04-1.51.05-.54.13-2.84,1.8-3.05.78-.18-.83,5.8-4.39,6.8-4.96.87-.49,5.57-3.19,6.16-2.6Z"/>
      <path d="M165.23,30c.09.02.42.39.36.48-2.45,1.02-5.21.98-7.73,1.75-1.96.6-6.07,2.99-7.74,3.07-.28.01-.57-.02-.85-.01-.08-.38.12-.5.36-.72.5-.46,3.03-1.64,3.8-1.96,1.31-.55,7.11-2.6,8.2-2.6.88,0,2.92-.17,3.6,0Z"/>
      <path d="M154.96,58.6c.29-.02.62.21.55.55-1.83,1.81-4.32,2.73-6.46,4.1-1.27.82-4.11,3.38-5.29,3.6-1.12.21-.68-.79-.13-1.34.67-.68,3.2-2.44,4.12-3.08,1.4-.97,5.71-3.74,7.21-3.84Z"/>
      <path d="M166.31,54.24c2.25-1.16,5.05-1.22,7.53-.93.82.09,4,.51,4,1.53,0,1.88-4.07.21-4.93.12-1.81-.2-4.32.31-6,0-.41-.08-.67-.25-.6-.71Z"/>
      <path d="M193.66,78.97l-.1.72c-.19.25-.41.24-.7.22-1.42-.07-4.66-1.24-6.35-1.6s-4.85-.43-5.89-1.31c-.25-.21-.5-.24-.4-.68.69-.75,8.07.9,9.41,1.27s2.69.91,4.02,1.39Z"/>
      <path d="M161.21,68.43c.13-.02.24-.05.37,0l.64.6c.17.98-3.02,1.42-3.75,1.73-2.87,1.23-7.65,5.36-9.98,6.09-.59.18-1.15.45-1.61-.17,2.64-2.19,5.74-3.8,8.79-5.37.88-.45,2.01-.74,2.89-1.19.77-.39,1.93-1.59,2.66-1.69Z"/>
      <path d="M194.15,64.8c-.19,1.45-1.88.31-2.76.24-.96-.08-3.42-.14-4.27.05-.23.05-1.99,1.33-2.06,1.44-.09.14.41.87-.45,1.11-1.78.49-3.15-1.69-.79-1.64-.04-.32-.72-.83-.25-1.08,1.33.29,2.4-.9,3.26-1.06,2.15-.4,5.22.35,7.31.95Z"/>
      <path d="M190.07,57.36c-1.08.32-2.14-.16-3.23.02-.69.11-1.01.71-1.68.72-.57.01-1.77-.52-2.47-.67-.62-.14-1.99.21-1.99-.66.08-.56.4-.68.87-.82,1.41-.44,7.28-.49,8.26.59.27.3.3.43.24.83Z"/>
      <path d="M171.83,70.08v.7c-1.72.56-3.44.49-5.19.94-1.86.48-3.44,1.71-5.37,1.71-.08-.56.42-.76.79-1.01.69-.46,2.25-1.19,3.05-1.51,2.24-.89,4.3-1.51,6.72-.84Z"/>
      <path d="M165.11,54.72c.08.37-.11.5-.36.72-.29.27-6.64,2.83-7.32,3-.49.12-.94.17-1.44.12-.69-.58,3.38-2.55,3.68-2.68.86-.38,4.86-1.96,5.44-1.16Z"/>
      <path d="M141.35,24.72c.31.07.29-.25.35-.48.16-.55.38-3.05,1.2-2.88.7.15.55,5.16-.76,5.5-1.04.27-2.62-2.83-2.94-3.7,1.05-1.13,1.89.58,2.15,1.56Z"/>
      <path d="M144.18,34.02c-.28.26-1.2.3-1.71.57-1.52.81-3.1,2.71-4.83,3.57-.28.14-.52.31-.61-.13-.21-1.12,2.06-2.18,2.76-2.76.52-.44,2.02-1.53,2.28-1.8s.26-.81.47-.96c1.09-.76,2.5.71,1.63,1.51Z"/>
      <path d="M191.75,60.96c-1.59.09-2.88-.99-4.46-1.17-1.08-.12-2.18.07-3.27-.1-1.16-.17-1.36-.55-.14-.97,2.36-.81,5.53-.27,7.37,1.42.27.24.6.35.5.82Z"/>
      <path d="M188.15,54.72c-1.07.04-2.16-.06-3.24,0-1.42.08-3.18.42-4.59.46-.94.03-1.58-.53-.56-1.05,1.85-.95,5.71-.05,7.79-.13l.6.72Z"/>
      <path d="M162.51,51.8c.39.24,2.13-.13,2.37,1.35l-2.49,1.32c-.89-.19-1.2-3.02-1.11-3.83,1.01-.35,1.03,1.04,1.23,1.16Z"/>
      <path d="M144.95,37.44c-.51,1.01-6.98,5.2-7.44,4.8.41-1.19,1.87-2.14,2.9-2.74s1.9-.79,2.85-1.23c.51-.24.75-1.11,1.7-.82Z"/>
      <path d="M191.51,82.08c-.55.73-3.98-1.3-4.8-1.56-.44-.14-1.83.01-1.68-.71.24-1.18,4.6.58,5.26.97.26.15,1.51.91,1.21,1.3Z"/>
      <path d="M152.39,82.8c.17.17-.78,1.33-.97,1.55-.49.59-3.51,3.56-3.99,3.69-2.09.57.97-2.37,1.36-2.73.36-.33,3.35-2.77,3.6-2.52Z"/>
      <path d="M154.31,19.2c1.16-3.35,1.9,1.56.36,2.64-.64.15-1.97-2.23-2.27-2.76.59-.71,1.32-.34,1.91.12Z"/>
      <path d="M163.13,44.34c-2.09.82-3.45-.82-.9-1.63-.12-.59-1.44-.07-1.2-.95,2.66-1.32,3.11.35,2.1,2.58Z"/>
      <path d="M167.63,22.18c1.79-.09,2.15,3.39.2,3.7-1.18.1-.63-2.46-1-3.18.06-.28.52-.51.8-.52Z"/>
      <path d="M126.71,29.04c-.42-.36.05-5.1,1.32-5.27.78.05.1,3.02-.04,3.55-.21.77-.21,1.92-1.27,1.72Z"/>
      <path d="M157.64,28.59c.19.9-.65,1.37-1.47,1.13-1.62-.48-.07-4.93,1.75-3.19l-.96,1.44.68.63Z"/>
      <path d="M165.66,60.06c.43-.42,4-1.48,4.25-.65.08.85-.71,1.09-1.38,1.25-.59.14-4.2.71-2.87-.6Z"/>
      <path d="M190.07,62.15l-4.92.51c-2.67-.58.25-1.18,1.43-1.23,1-.04,2.78-.07,3.49.73Z"/>
      <path d="M186.47,52.8c-1.61.24-3.02.34-4.64,0l-.16-.6c.14-.45,4.8-.85,4.8.6Z"/>
      <path d="M173.03,64.32c.68.94-2.88.75-3.24.72-.97-.08-1.56-.11-1.32-1.2l4.56.48Z"/>
      <path d="M150.47,31.69c.41.59-1.03,3.35-2.05,2.41-1.2-1.01.76-3.05,2.05-2.41Z"/>
      <path d="M178.72,45.41c.97-.3,2.68.18,2.95,1.27-1.12.84-2.83.39-3.59-.72.2-.2.36-.46.65-.55Z"/>
      <path d="M149.03,83.04c.06.49-.41.78-.72,1.08-.99.97-2.5,1.88-3.6,2.76-.46-.58,2.65-3.26,3.28-3.56.35-.17.62-.36,1.04-.28Z"/>
      <path d="M179.75,50.64c.6-1.01,2.24-1.48,3.29-1.01l1.27,1.01h-4.56Z"/>
      <path d="M182.87,65.04c.07.62,0,.38-.35.48-1.41.43-2.79.2-4.21,0-.06-.48-.04-.39.3-.54.61-.26,3.9-.31,4.26.07Z"/>
      <path d="M195.11,66.72c.32,2.11-4.32.46-3.36-.48l3.36.48Z"/>
      <path d="M163.19,12.96v.7c-.66.01-2.52,1.36-2.86.35-.47-1.43,1.94-1.4,2.86-1.05Z"/>
      <path d="M180.71,26.39c-.06-1.41,1.81-1.93,2.62-.81l-.22.7c-.76.55-1.57.38-2.4.11Z"/>
      <path d="M149.03,35.52c.14.62-.17.42-.45.62-.45.32-2.94,1.65-3.15.7-.17-.79,2.94-1.59,3.6-1.32Z"/>
      <path d="M160.79,60.47c-1.18.39-2.97.55-2.29-1.21,1.08-.68,2.18-.03,2.29,1.21Z"/>
      <path d="M182.09,14.82c-1.06.93-3.83.19-1.86-.78,1.33-.66,2.74.02,1.86.78Z"/>
      <path d="M147.59,81.84c-.08.7-3.58,3.37-3.84,3.12-.1-.45.25-.57.48-.84.41-.49,2.76-2.75,3.36-2.28Z"/>
      <path d="M132.65,22.61c.51-.1.93-.17,1.26.31l-2.52,1.55-.37-.6.12-.36c.16-.3,1.15-.83,1.5-.9Z"/>
      <path d="M151.19,29.04c.63.54-3.06,2.27-3.6,1.92.18-.76,3.2-2.26,3.6-1.92Z"/>
      <path d="M191.75,61.92c.64-.26,2.79.63,2.64,1.32-.19.86-3.07-.21-2.64-1.32Z"/>
      <path d="M179.75,76.32c.69.96-2.92.73-3.36.72-.16-1.31,3.12-1.05,3.36-.72Z"/>
      <path d="M182.45,32.46c.6-.58,2.06-.14,1.83.74-.35,1.35-2.98.39-1.83-.74Z"/>
      <path d="M182.63,22.32c.37,1.18-2.33,1.53-2.64.84-.47-1.08,2.18-.83,2.64-.84Z"/>
      <path d="M194.28,72.48c.59.04,2.02.53,1.79,1.32-.37,1.29-2.96-1.08-1.79-1.32Z"/>
      <path d="M186.14,66.98c.48-.13,1.47.4,1.76.82-1.05,1.71-3.05-.48-1.76-.82Z"/>
      <path d="M134.76,43.92c.79-.17,1.11,1.76.24,2.14-1.13-.16-1.06-1.97-.24-2.14Z"/>
      <path d="M155.99,80.16c-.42-.4,2.91-2.66,2.87-1.56-.71.87-1.78,1.36-2.87,1.56Z"/>
      <path d="M177.83,61.68c-.31.31-2.3-.41-2.16-1.2l1.93.1.22,1.09Z"/>
      <path d="M174.23,64.56c.9-.09,1.89-.36,2.63.36,0,.61-2.81.8-2.63-.36Z"/>
      <path d="M154.07,29.76c.13,1.07-1.05,1.53-1.92,1.44-.43-.86,1.7-1.65,1.92-1.44Z"/>
      <path d="M190.07,66.48c.62.74-1.21,1.23-1.68.96l.23-1.1,1.45.14Z"/>
      <path d="M181.19,17.76c0,.65-.44,1.34-1.13,1.02-1.41-.97.02-1.51,1.13-1.02Z"/>
      <path d="M191.99,71.52c.61.65-1.89.86-2.16.72-.11-.95,1.81-1.08,2.16-.72Z"/>
      <path d="M64.79,101.52c.39.41-1.07.9-1.28,1-2.22,1.02-9.89,3.49-12.04,3.08-.67-.13-.78-.62-.48-1.2s2.45-.65,3.25-.83c2.58-.59,5.3-1.52,7.87-1.97.59-.1,2.3-.48,2.69-.07Z"/>
      <path d="M67.19,104.16c.09.45-.23.58-.5.82-1.68,1.48-11.24,4.71-13.57,4.92-1.06.09-1.9-.33-.74-.99,1.48-.84,3.52-1.07,5.1-1.62,2.31-.81,6-2.62,8.21-3.07.5-.1,1-.06,1.5-.06Z"/>
      <path d="M61.43,98.88c.46.35-1.51,1.25-1.68,1.32-2.4.97-5.25,1.35-7.62,2.48-1.47.56-1.64-2.37-.87-2.59.38-.11,1.2.55,2.11.46.97-.09,2.78-.86,3.94-1.11,1.35-.29,2.73-.64,4.12-.55Z"/>
      <path d="M54.88,96.53c.74-.17,2.42-.23,2.95.31.11.51-1.88,1.31-2.34,1.5-.73.3-5.13,1.89-5.34.89-.03-.4.36-.6.64-.8.25-.18,3.87-1.86,4.09-1.91Z"/>
      <path d="M64.25,108.76c.53-.09,1.31.09.91.68-.33.49-6.81,3.62-7.46,3.58-1.02-.06-1.01-.94-.04-1.47.54-.3,6.19-2.72,6.59-2.79Z"/>
      <path d="M27.21,118.16c.07-.13.59-.02.37-.68-1.51-.33-3.08-3-.65-2.48,2.21.47,2.23,5.79.16,4.41-.47-.44-.12-.84.11-1.25Z"/>
      <path d="M23.81,106.38c.55-.53,2.81-.26,2.55.74-.35,1.33-3.89.56-2.55-.74Z"/>
      <path d="M23.27,96.24c.38-.43,2.94,2.47,1.55,2.88-1.13.33-1.93-2.04-1.55-2.88Z"/>
      <path d="M23.33,103.5c1.04-1.03,3.34,1.15,1.27,1.39-1.2.14-2.03-.13-1.27-1.39Z"/>
      <path d="M23.44,101.09c3.24-.75,1.26,2.89-.89.55.23-.28.53-.46.89-.55Z"/>
      <path d="M130.76,55.95c.67.42.37,5.19-1.5,4.99-1.37-1.75-1.54-5.28,1.5-4.99Z"/>
      <path d="M131.03,53.28c.74.72-3.22,3.13-4.08,2.64-.74-.71,3.26-3.11,4.08-2.64Z"/>
      <path d="M132.12,69.84c.75-.17,1.26,1.68.48,2.15-1.01-.15-1.37-1.95-.48-2.15Z"/>
      <path d="M135.59,123.12c-1,.22-5.45-.63-5.04-2.03.26-.9,1.72.11,2.28.13s1.12-.36,1.62-.22c.69.18,1.38,1.4,1.14,2.13Z"/>
    </g>
  </g>
</svg>