<?xml version="1.0" encoding="UTF-8"?>
<svg id="Calque_2" data-name="Calque 2" xmlns="http://www.w3.org/2000/svg" viewBox="0 0 1292.04 3.24">
  <defs>
    <style>
      .cls-1 {
        fill: #202020;
      }
    </style>
  </defs>
  <g id="Calque_1-2" data-name="Calque 1">
    <g>
      <path class="cls-1" d="M1291.72,2.28c.68-.09.3-.28-1.58-.24l-1.33.33,2.91-.09Z"/>
      <path class="cls-1" d="M1279.12,1.67c-2.2.16-4.74.44-3.32.75,2.18-.32,2.71-.19,5.06-.56,1.88-.04,3.27.11,2.96.23.66-.08,2.91.07,3.92-.14-2.44-.26-5.53-.27-8.76-.06-.69-.07-.02-.16.14-.22Z"/>
      <path class="cls-1" d="M1095.96,1.15l1.18.04c-.32-.02-.73-.03-1.18-.04Z"/>
      <path class="cls-1" d="M982.48.97c.86,0,1.22-.04,1.27-.07-.8.02-1.46.04-1.27.07Z"/>
      <path class="cls-1" d="M963.1.61c.42.01.77.02,1.14.02-.44-.03-.87-.05-1.14-.02Z"/>
      <path class="cls-1" d="M1095.96,1.15l-3.03-.1c-.21.11,1.55.08,3.03.1Z"/>
      <path class="cls-1" d="M1253.86,2.47c.64-.02,1.16-.05,1.65-.09-.52.01-1.03.03-1.55.04-.03.02-.05.03-.1.05Z"/>
      <path class="cls-1" d="M1145.99.89h.92c.27-.04.53-.08.77-.14l-1.69.14Z"/>
      <path class="cls-1" d="M1184.38.83c-.87-.01-1.17.27-1.5.39.49-.12,1.13-.17,1.89-.19.01-.05-.1-.12-.39-.2Z"/>
      <path class="cls-1" d="M1245.26,1.33l1.08-.04c-.28.01-.75.02-1.08.04Z"/>
      <path class="cls-1" d="M1118.51.82c-.06-.04-.2-.08-.35-.1,0,.04.14.07.35.1Z"/>
      <path class="cls-1" d="M44.68,2.94s-.01-.03,0-.05c-.22.03-.29.05,0,.05Z"/>
      <path class="cls-1" d="M.18,1.55l.62-.02c.07-.05.13-.11.13-.16l-.75.17Z"/>
      <path class="cls-1" d="M927.64.25c.07,0,.09,0,.16,0,.93-.03.4-.03-.16,0Z"/>
      <path class="cls-1" d="M602.12.45c3.69.25-6,.32-.45.6-.52-.11,5.05-.44.45-.6Z"/>
      <path class="cls-1" d="M1252.87,2.43c-.52,0-1.05,0-1.57,0,.72,0,1.2,0,1.57,0Z"/>
      <path class="cls-1" d="M601.67,1.06h0s.57.03.57.03c-.24-.01-.37-.02-.57-.03Z"/>
      <path class="cls-1" d="M845.94.42c.17.05.49.09.83.12-.03-.03-.22-.06-.83-.12Z"/>
      <path class="cls-1" d="M906.81.82l-1.51-.04c.6.03,1.08.03,1.51.04Z"/>
      <path class="cls-1" d="M814.34.81c-.82-.02-1.1-.06-2.22-.02.1.01.21.02.34.03.4-.04.94-.06,1.88-.01Z"/>
      <path class="cls-1" d="M781.45.81c.17.02.4.04.61.06.33,0,.71-.01,1.04-.02l-1.65-.04Z"/>
      <path class="cls-1" d="M144.65,2.8c-.72-.08-1.17-.17-1.52-.25.51.2-4.33.27,1.52.25Z"/>
      <path class="cls-1" d="M1253.85,2.31c-.19.07-.47.11-.98.12.38,0,.74,0,1.09-.02.1-.04.12-.08-.12-.11Z"/>
      <path class="cls-1" d="M813,3.03l-5.23-.04c1.46.03,3.36.04,5.23.04Z"/>
      <path class="cls-1" d="M380.63,2.76l-1.2.03c.46,0,.89,0,1.2-.03Z"/>
      <path class="cls-1" d="M792.27,3.03c-.93-.1-1.92-.16-2.94-.19-.22.02-.46.04-.61.07l3.55.12Z"/>
      <path class="cls-1" d="M143.12,2.55s.01,0,.01,0c0,0,0,0-.01,0Z"/>
      <path class="cls-1" d="M108.7,3.21c4.98,0,2.34-.36,3.4-.57,5.94-.1,2.75.27,4.77.46,3.71-.1,6.56-.44,9.33-.42.21.06.74.08.11.16,3.92-.29,11.65-.01,16.22-.38.34.03.51.06.6.09-.74-.18-.85-.37-.7-.51,2.23,0,4.14-.23,4.98,0-1.37,0-1.48.09-2.12.17l2.34-.11c2.11.35-3.19.12-3.19.38,4.56-.11,9.88-.4,13.37-.3.73.34-8.17.11-3.51.42l-5.41-.13c4.13.54-3.29-.04.51.54,7.12.1,7.96-.17,15.06-.07,1.6-.19-.53-.28,1.07-.47,10.09-.34,7.94.85,15.36.4,1.92-.23,2.66-.66,7.95-.43l-1.8.38c6.89.04,3.93-.55,11.15-.29-1.28.15-5.42.13-4.37.17,4.68.3,3.31-.22,6.9-.22l.74.34c7.34-.05,15.42-.3,23.54-.36-.45.1-1.84.21.06.31,10.25-.17,21.87.04,31.76.24l3.78-.29c.88,0,1.63.13.68.19,3.85.11.2-.19,2.05-.3,2.19-.02,2.9.17,1.51.26,6.8-.25,19.36-.54,26.53-.22l-1.4.09c5.58.12,6.29-.6,11.47-.33l-.99.05c12.1.13,25.48-.14,34.72.3,1.76-.42,11.98.19,12.76-.4,6.91.29,4.93.4,14.67.59,2.6.03,3.87-.37,7.09-.43l.08.31,4.36-.32,2.32.37,3.01-.08c-1.2-.02-2.55-.14-2.37-.23,4.71-.14,11.48.21,11.6.37l11.14-.26c-.25.12-2.11.17-3.59.25,5.95-.31,1.08.32,6.53.04-.73-.07.39-.18.52-.25,2.72.19,8.9.19,13.47.11l-.88.21c8.26.05,17.42-.1,26.69-.1-3.33-.1-2.56-.47.16-.5l1.09.33c1.76-.2-2.84-.12.76-.37,3.46.04,2.33.37.34.48l4.21-.11c.25.1-.74.15-1,.27,1.73-.2,7.27.33,9.76-.02l.24.1c9.27,0,13.47-.11,21.03-.13.15-.28,3.1-.22,5.35-.45,5.55.09,11.71.31,18.4.29,4.7-.14,1.37-.24,3.49-.41.35.26,7.02.23,3.56.42,8.03-.04,10.25-.05,20.4-.26-1.1-.11-2.34-.15-1.7-.24,1.84-.04,4.19.11,3.93.23l-.49.03c11.39-.38,26.3.75,35.37.21l-.51.03,9.41-.28c4.33.04-2.6.19.61.35,10.15-.43,16.03.06,24.39-.22,6.47.76,22.96-.05,31.69.43l-.5-.18c2.26-.17,2.73.1,4.39.14-.24-.14-2.45-.16-1.05-.26,19.12-.21,39.46.26,59.06.42,7.17.05,4.07-.92,13.11-.5l-2.57.33c14.47-.4,29.58.01,43.74-.32-.84.08-.87.18-2.25.17,2.99.24,11.06.01,11.11-.18,2.21.02.51.18,1.87.28,3,.14,7.53-.31,9.13-.07.27.04-.84.08-1.39.1,1.96-.12,9.11.03,7.24-.25,5.32.13,10.17-.12,14.41.04,2.76-.31,9.1.15,9.98-.29-.38.45,9.32.36,12.68.15-1.13.14,2.92.14,1.6.33,3.84,0,7.35-.09,6.68-.32,7.07.54,14.2-.44,18.18.26,11.39-.24,21.94-.41,32.18-.51-.37.45-11.33.04-10.89.52,9.72-.19,15.33-.57,24.97-.46,2.5.06-1.42.2-2.26.27,9.71-.19,18.78.04,27.42-.2-.02.04-.96.09-1.84.12,1.7-.01,3.96.07,3.77-.14l-1.66.06c-2.72-.3,6.76-.62,7.07-.78-2.89.59,8.54.15,3.94.89,1.12-.04,2.53-.14,2.27-.27,1.66.04,2.19.12.5.28,6.1-.11,3.93-.33,9.46-.32-.02.1-1.14.14-1.71.25,2.8-.19,5.61-.39,10.28-.3-.28.06.26.14-1.13.14,8.02-.03,13.67-.52,22.48-.33-2.6.43,2.99.14,3.46.52l4.73-.11-1.9-.18c4.15,0,7.81-.27,11.37-.14l-3.08.15,7.77-.07-4.4-.14c4.19-.19-.45-.47,5.07-.37-1.12.04,4.15,0,6.31.22,0,0-.01,0-.01,0,2.05-.12,4.16-.24,7.23-.15.8.12-.64.41-.12.49,2.02-.31,9.71-.09,12.27-.42-.85.08-.9.27-.62.31l1.7-.25c1.92.08,2.2.12,1.89.28,5.78.05-1.83-.47,5.02-.27-.54.02-.28.06-1.4.1,6.89.11,13.3-.16,19.63-.04,1.87.38-5.53.09-3.39.41,9.12-.07,18.89-.45,27.72-.36l-1.65-.04c1.22-.53,6.57.26,11.04.01-1.09.04-1.43.29-1.14.24,6.05.09,12.36-.13,21.52-.3l-1.14.14c3.56.12,9.38.07,13.23.13,1.14-.14,3.34-.11,2.01-.31,11.87.78,22.64-.42,33.16.23-1.26,0-3,.12-2,.12l8.97-.13c-.71-.23-1.18-.14-3.06-.32,1.14-.14,3.67-.24,5.89-.24-4.03.15.04.37,1.78.5-.29-.07.3-.15.16-.22,4.69.41.79-.46,7.18-.19l-.34.12c2.39-.06,4.6-.22,7.18-.19,1.07.27-2.55.12-2.71.34,3.63-.02,7.15-.51,10.44-.24-1.54.07-3.76.08-5.29.15,3.57.31,3.99.23,6.64.28h-.26s6.14.14,6.14.14l-1.56-.09c4.54-.7,9.24-.13,15.35-.58-5.94.43-.98.25-1.44.55,1.56.08,3.93.18,3.26.26,2.89-.24,4.82.19,8.9-.16.18.1,3.09,0,2.44.25,3.76-.08-.89-.17-.57-.29,5.79-.33,13.61.4,21.94-.05,7.18-.19,8.51-.52,15.17-.68,2.25.16-1.84.36-1.84.36,3.63.14,6.36.12,9.78,0-.69.09.02.16,1.06.27,2.74-.03,1.83-.36,5.45-.21-.62.11-1.42.28-2.74.39,3.23-.09,6.43-.27,9.77-.36.89.17-2.02.26-3.2.37,3.76-.08,9.75-.15,10.91-.42l-2.41-.1c1.37-.01.71.23-.31.28-3.22.21-4.65-.09-4.83-.19l2.38-.06c-2.45-.57-9.58.09-14.37.06l2-.42-4.92.35c-1.05-.11-1.76-.34.61-.4-3.44-.21-3.05.15-6-.08-.33-.04-.18-.06.12-.07l-3.36.12c.66-.09-.56-.29,1.51-.23-6.03-.24-9.73.31-12,0l.5-.03c-8.37.14-.81.31-7.09.66l-4.23-.75-.82.31c-.86-.01-2.57-.03-2.26-.16-3.21.21.55.13-1.32.33-4.16-.28-11.46.13-12.4-.36-1.49.23,3.98.18-.46.34-1.27-.52-5.13.09-8.93-.15,1.17-.27,4.76-.13.96-.37-2.29.46-7.4-.1-10.6-.01-.15.36-6.96.15-12.34.27.34-.12-10.11-.2-15.11-.33l.15-.06c-.97.37-6.13.3-9.88.37.15-.22.82-.31,2.86-.4h-3.53c-.83.12-1.93.18-4.22.22l.89-.27c-4.7.02-9.46.32-15.51.14-.34.26,4.81.71-1.58.88-.24-.14-.47-.38,1.2-.43-.55.02-1.95.12-3.06.06l2.55-.23c-2.75-.1-1.44.19-3.64.17.04-.2-1.63-.14-1.31-.3.56-.02,1.92.08,2.76,0-2.48-.04-5.48-.15-6.47-.3.22.11,0,.27-1.82.29-4.7.01-1.61-.24-4.35-.34-1.14.14-4.14,0-4.21.29-1.38,0-1.63-.14-2.16-.22-2.43.13-11.36.04-8.62.35l.62.02c-.12,0-.25,0-.4.01h.02-.02c-7.97.29-16.56-.17-24.47-.04v-.1c-4.71.11-10.5.07-13.87.28-1.4,0-3.3-.18-2.7-.3-3.61.07-4.01.19-9.23.02,3.63-.17-1.25-.15,3.72-.13-4.69-.09-5.75-.24-10.79.03,1.71-.25-3.53-.32-5.76-.24l3.29.18c-2.51.04-4.7.01-6.92,0l1.2-.33c-9.6-.4-17.31.69-24.61.01-2.54.23,5.21.16,2.94.44-4.41-.04-9.01-.52-10.4-.52-6.05-.18-5.64.49-11.97.36.81.12,1.57.44-3.16.55-4.42-.04-5.43-.5-2.64-.59,1.06-.01,1.57.03,1.53.07,1.43-.04,3.3-.09,1.55-.22l-.57.12c-2.19-.12-8.27-.11-6.84-.3-3.34.11-1.43.19,1.05.26-5.67-.17-8.85,0-14.68-.12.93.07,1.78.2.86.2-8.55-.15-3.77.23-9.56.28-3.29-.18,1.18-.43-4.65-.28-3.56-.12-.75-.31.66-.41-5.32.23-9.93-.15-12.97-.19l2.8-.1c-1.67.06-3.05.06-4.44.05l1.6.24c-1.64-.04-3.04-.04-3-.14-1.69.16,1.3.39-2.07.61-2.19-.12-6.67.13-7.43-.19,6.89.11-.76-.32,5.07-.37-1.13.04-2.5.04-4.15,0-.25-.04.23-.07.68-.08-6.6-.28-3.03.36-9.87.35.87-.18-1.58-.34-2.7-.3,2.75,0,1.32.3-1.21.43-4.38-.14-4.76.1-7.06.09l2.62.06c-.89.18-3.08.15-6.13.21-.26-.14,2.77-.1,1.68-.16-3.39.31-7.67-.32-12.4-.11-2.19-.12-.21-.33-2.14-.42-5.3.23-5.74-.24-11.31-.05,1.61.24,1.89.18-2.04.41l9.16-.17-5.88.35c2.76,0,5.83-.15,7.49-.11-2.8.19-2.51.14-1.19.33-3.78-.36-7.5.21-11.87-.03l.13-.59c-6.57-.26-11.68.3-20.22.15l2.74.1c-1.14.23-5.27.03-8.04.13.26-.2-1.47-.27-2.65-.39.14.15-6.25-.01-7.02.38l-3.81-.26c-6.89-.11-7.87.56-14.49.5,2-.21-1.02-.35,3.42-.51-2.21,0-4.2-.04-4.24.1-1.29-.12-6.13.27-8.17.08-.93.09-1.24.29-3.72.28-.27-.04,0-.1,0-.1,0,.1-3.89.13-1.72.35-6.81-.62-19.05.04-24.98-.48-4.83.07-10.65.13-15.03.14.28-.06.01-.1.84-.08-6.05-.18-3.72.57-10.6.36-3.51-.32,3.65-.17,1.46-.29-.95-.65-8.3.09-12.93-.29l1.12-.04c-3.54-.22-8.64.25-14.42.2,0,0,.28-.06.03-.1-3.95.33-11.44.44-17,.53,1.73-.25,2.53-.13,1.47-.39-2.49.04.73.41-4.25.49-1.62-.14-5.21-.26-5.69-.54h4.69c-2.41-.37-6.08,0-8.55-.06l.32-.16c-7.2.05-7.3.44-15.03.42l.8.12c-4.23.39-3.54-.22-7.76.07l-1.28-.39c-2.79.1-9.77.38-14.77.46,2.83-.29,8.68-.44,12.31-.62-2.76,0-9.39.03-10.83.22,1.11-.04,2.52-.13,3.62-.07-3.39.31-7.85.46-13.36.46.98-.77-14.36-.19-18.35-.79-9.74.28-19.33-.12-30.68-.08,4.03.6-3.31.02-2.62.63-2.64.04-3.65.03-3.89-.01l-8.01-.37c-1.9-.18,2.51-.13,2.27-.27-5.79-.05-2.43-.26-6.26-.42.79.22-2.01.31-5.31.23l4.65.28c-8.09.33-6.99-.51-15.15-.19l2.58-.19c-4.18.11-15.44,0-19.54.49-.74-.07-1.72-.24.12-.28-10-.07-22.26.52-30.03.22l.76-.15c-1.87.04-3.25.28-5.58.13.12-.06.75-.15-.11-.16-.99.05-4.96.26-7.43.17l2.11-.17c-9.76-.2-14.97.41-23.15.51.02-.44-7.65-.58-11.49-.65l.13-.06c-11.36-.05-19.3.36-29.81.54-6.53-.48-22.12-.2-32.61-.47,1.6.08-.26.34-2.13.39-2.46-.09-6.81.31-6.42-.1h.88c-1.86-.39-6.92-.28-10.87-.29l-.65.53c-10.34-.77-27.08.28-32.73-.41-2.49.13-5.58.13-8.06.26l.13-.28c-6.91-.07-10.36-.11-18.9-.04l1.74-.2c-4.82-.02-6.08.82-10.53.83l-1.34-.42c-8.41,0-16.92-.36-25.22.02.14-.06.38-.18,1.74-.2-3.96-.01-15.31-.29-13.87.29-.1-.38-8.67-.04-13.21.13l.71-.28c-3.83.36-3.95.45-9.31.55-1.27-.04-1.11-.22.57-.15-4.23-.15-3.29.26-8.42.12l1.91-.18c-4.35-.02-4,.07-6.4.28-2.73.11-8.25-.07-8.89-.32-.59.15-2.97.36-5.53.29-.35-.1.59-.15,1.06-.18-7.27-.19-10.81.32-15.81.05-.1-.09-.43-.14-.84-.17,5.78,0,10.43.02,9.99.04,0-.26-4.67-.3-.95-.66-3.75.19-10.15.61-14.7.49-.22-.02-.44-.05-.6-.09l.47-.03c-1.05-.03-1.99,0-2.87.04-1.45-.04-2.37-.07-3.77-.08-.54-.21-5.35-.11-7.68-.12.19.28-2.85.24,0,.47-.37-.02.44-.03,1.99-.05.35,0,.76-.01.99-.03-.04,0-.1.02-.16.02,1.53,0,3.52-.01,5.78-.02-1.84.14-3.76.26-6.33.11-1.19.18-2.51.37-3.25.45-3.18-.39-9.32-.6-10.17-.85-7.1.16-16.73.1-21.2.63-2.02.07-2.32-.15-3.08-.23,1.17-.05,2.55-.04,3.18-.12-4.04.14-11.96.05-12.93.42-5.09-.17,2.86-.34-4.13-.28l.94-.11c-13.76-.59-22.37.94-37.62.18,1.06.05,1.58.07,1.8.13-17.39-.33-35.83.31-52.99-.22-4.88-.11-5.41.13-8.38.31l-1.06-.3-5.09.35c-7.22.26-12.5-.74-21.63-.26l1.18.2c-3.28-.04-10.39.12-9.85-.11-.34.04-1.08.21-2.36.11l-.1-.16-8.06.27c-6.25-.11.98-.63-8.14-.66C5.29.69-.97,1.09.3,1.19c1.37,0,3.5.1,3.6.26l-3.1.08c-.56.47-2.95.94,4.66,1.27l5.3-.28,1.71.23h-4.46c2.53.23,4.14.04,5.93-.09.43.12,1.17.2,2.22.25l5.21-.44c.63.18-2.33.36,1.16.46,2.44-.21-2.34-.41,1.7-.54,2.54.21,1.8.38,4.77.2.42.12-.21.2-1.39.25,2.65-.14,7.01-.06,8.38-.31,2.64.26,8.95-.07,8.69.37.83-.11,4.67-.35,7.1-.36-4.45.53,9.11.03,7.94.6,3.29-.47,11.89-.21,17.72-.47-.33.04-.97.11-1.48.09,3.28.04,4.24.18,6.34.27.42-.39,5.53-.48,8.29-.72,4.02.38-2.44.46-1.18.82-.2-.32,6.99-.32,5.62-.58,3.08.23,2.65.11,4.24.44.54-.49,2.86-.08,5.42-.38,4.45.24,1.15.46,6.04.31,2.33.15-2.02.32-2.02.32ZM225.01,2.37h0c-1,.01-1.86.02-2.4.02.5,0,1.19,0,2.4-.02ZM234.78,2.36c-1.19-.01-2.67-.01-4.24-.01-.34-.1.03-.2,1.01-.19-.53.06,1.77.12,3.23.2ZM214.11.41c1.55-.04,2.07.02,2.28.07-.73,0-1.58.01-2.71.03-.04.01-.14.02-.18.03.15-.05.32-.1.61-.14Z"/>
      <path class="cls-1" d="M211.32.78c-.22,0-.35.02-.64.02.32.02.62.05.92.06.19-.03.38-.06.55-.09-.28,0-.57,0-.83,0Z"/>
      <path class="cls-1" d="M1097.35,1.2h-.21c.17,0,.33.02.43.03-.14-.01-.14-.02-.23-.03Z"/>
      <polygon class="cls-1" points="369.75 2.9 369.73 2.83 368.88 2.89 369.75 2.9"/>
      <path class="cls-1" d="M1151.18,2.16c.1.02.3.05.71.07-.03-.02-.34-.04-.71-.07Z"/>
      <path class="cls-1" d="M1174.43,2.23l3.29.1c-1.42-.06-2.46-.08-3.29-.1Z"/>
      <path class="cls-1" d="M1192.31,2.37c.23-.05.29-.09.35-.12-.01,0-.02,0-.04,0l-.31.12Z"/>
      <path class="cls-1" d="M908.04,2.7c-.24,0-.48,0-.69.01-1.62.05-.52.03.69-.01Z"/>
      <path class="cls-1" d="M992.64,2.04c-.9.05-1.78.1-2.72.13,1.51.02,2.68.03,2.72-.13Z"/>
      <path class="cls-1" d="M813.58,3.04s0,0,0,0c-.2,0-.38,0-.58,0h.57Z"/>
      <path class="cls-1" d="M985.98,2.17c1.51.06,2.76.04,3.93,0-1.23-.02-2.69-.05-3.93,0Z"/>
      <path class="cls-1" d="M1269.8,2.49h.86s.04-.02.1-.03l-.96.03Z"/>
      <path class="cls-1" d="M1270.77,2.46l.96-.03c-.44,0-.82,0-.96.03Z"/>
      <path class="cls-1" d="M1273.74,2.36l-2.01.07c.7,0,1.56,0,2.01-.07Z"/>
      <path class="cls-1" d="M1246.14,2.36l-.27.1c.15-.02.24-.05.27-.1Z"/>
      <path class="cls-1" d="M1238.94,2.39c1.72.02,4.3.22,6.7.15l.22-.08c-1.13.15-5.29-.24-6.92-.07Z"/>
      <path class="cls-1" d="M1208.92,1.13l6.03.08c-1.05-.11-2.44-.25.3-.28-7.6-.32,1.57.24-6.33.2Z"/>
      <path class="cls-1" d="M1190.23.98c3.24-.05-.04-.16.13-.22-2.05.1-2.55.12-.13.22Z"/>
      <path class="cls-1" d="M1055.18.98l.33-.26c-2.5.04-.02.1-.33.26Z"/>
      <polygon class="cls-1" points="1029.37 2.3 1031.79 2.46 1032.95 2.22 1029.37 2.3"/>
      <polygon class="cls-1" points="1014.12 .48 1015.21 .44 1011.04 .53 1014.12 .48"/>
      <path class="cls-1" d="M787.3.57l.75.31c1.69-.06,2.04-.41-.75-.31Z"/>
      <path class="cls-1" d="M689.38.89c-1.07-.16-3.82-.26-5.52-.1,2.2.02,4.4.14,5.52.1Z"/>
      <polygon class="cls-1" points="395.72 .37 397.68 .27 393.97 .36 395.72 .37"/>
    </g>
  </g>
</svg>